<?xml version="1.0" encoding="utf-8"?>
<!-- Generator: Adobe Illustrator 21.0.0, SVG Export Plug-In . SVG Version: 6.00 Build 0)  -->
<svg version="1.1" id="Calque_1" xmlns="http://www.w3.org/2000/svg" xmlns:xlink="http://www.w3.org/1999/xlink" x="0px" y="0px"
	 viewBox="0 0 205.5 160.5" style="enable-background:new 0 0 205.5 160.5;" xml:space="preserve">
<style type="text/css">
	.st0{fill:#FFFFFF;}
	.st1{font-family:'Gilroy-ExtraBold';}
	.st2{font-size:34.9216px;}
	.st3{fill:#038390;}
	.st4{fill:#1D1D1B;}
	.st5{fill:#010101;}
</style>
<text transform="matrix(1 0 0 1 20.3115 147.8223)"><tspan x="0" y="0" class="st0 st1 st2">mode</tspan><tspan x="92.4" y="0" class="st3 st1 st2"> </tspan><tspan x="101.1" y="0" class="st4 st1 st2">défi</tspan></text>
<g>
	<g>
		<g>
			<defs>
				<rect id="SVGID_1_" x="164.3" y="85.6" width="19.2" height="5.5"/>
			</defs>
			<clipPath id="SVGID_2_">
				<use xlink:href="#SVGID_1_"  style="overflow:visible;"/>
			</clipPath>
		</g>
	</g>
</g>
<g>
	<defs>
		<rect id="SVGID_3_" x="163.3" y="91.2" width="21.9" height="5.2"/>
	</defs>
	<clipPath id="SVGID_4_">
		<use xlink:href="#SVGID_3_"  style="overflow:visible;"/>
	</clipPath>
</g>
<path class="st5" d="M139.7,71.6c0.1,0,0.1,0.1,0.2,0.1c0.1,0,0.2,0.1,0.3,0.1c0.1,0,0.1,0.1,0.2,0.1"/>
<g>
	<g>
		<g>
			<path class="st0" d="M121.9,108.5c4.2,0,7.8-3.5,7.8-7.8c0-4.2-3.5-7.8-7.8-7.8c-4.2,0-7.8,3.5-7.8,7.8
				C114.2,105,117.7,108.5,121.9,108.5z"/>
		</g>
	</g>
	<g>
		<path class="st0" d="M150.7,63.6c-2.7,0.5-4.8,2.9-4.8,5.8c0,2.2,0.9,4.3,3.1,5.2c1.8,0.6,3.1,1.4,3.1,2.5c0,1.7-1.6,2.7-4.7,2.7
			c-3.8,0-6.2-1.8-7.3-5.1L128.9,81c3.3,7,9.9,10.2,18.5,10.2c9.3,0,17.9-4.2,17.9-14.1c0-9-6.7-11.9-12.6-13.5
			C152.6,63.5,151.8,63.4,150.7,63.6z"/>
	</g>
	<path class="st0" d="M115.5,91.2h13.1l0-27.5c-0.3,3.2-3.1,5.9-6.5,5.9c-3.5,0-6.5-3-6.5-6.5V46.2l-12.8-0.1v24.5
		c0,5.3-2.2,7.8-6.3,7.8c-4,0-6.1-1.9-6.6-6.3l0-0.1l0-2.7l0-1.1c0-5.2-2.1-7.5-6.2-7.5c-4.7,0-6.6,2.7-6.6,8.9l-0.1,23.3h0
		c0,3.6-2.8,6.6-6.3,6.6c-3.6,0-6.5-3.1-6.5-6.6h0v0l0-46.8h0c0,0,0,0,0,0c0-3.8-3.3-7-7.1-7s-6.7,3.2-6.7,7c0,0,0,0,0,0h0v46.9v0
		H36.4v12.9v0l53.3,0v0l0-21.5c2.3,3.1,4.8,6.1,10.4,6.1c8.2,0,14.7-5.9,15.4-16.3L115.5,91.2z"/>
</g>
<g>
	<g>
		<path class="st5" d="M121.9,42.4c4.2,0,7.8-3.5,7.8-7.8s-3.5-7.8-7.8-7.8c-4.2,0-7.8,3.5-7.8,7.8
			C114.2,38.8,117.7,42.4,121.9,42.4z"/>
	</g>
	<path class="st5" d="M115.6,46.2v16.9c0,3.5,3,6.5,6.5,6.5c3.5,0,6.5-3,6.5-6.5V46.2H115.6z"/>
	<path class="st5" d="M87.3,48.6c-5.7,0-8,2.5-10.4,5.7V33l-56,0v13.2h15.5v47h13.8v-47h0c0,0,0,0,0,0c0-3.8,2.9-7,6.7-7
		s7.1,3.2,7.1,7c0,0,0,0,0,0h0l0,46.8h0c0,3.5,2.9,6.6,6.5,6.6c3.6,0,6.3-3.1,6.3-6.6h0L77,69.8c0-6.1,1.9-8.9,6.6-8.9
		c4.1,0,6.2,2.3,6.2,7.6v3.7c0.5,4.3,2.6,6.3,6.6,6.3c4.1,0,6.3-2.5,6.3-7.8v-4.9C102.3,54.8,95.8,48.6,87.3,48.6z"/>
	<path d="M134.2,68.3c3.6,3.3,8.4,4.4,14.3,6c0.2,0.1,0.4,0.1,0.6,0.2c0,0-0.1,0-0.1,0c-2.3-0.9-3.1-3-3.1-5.2
		c0-2.9,2.1-5.3,4.8-5.8c0.8-0.1,1.4-0.1,1.8,0c-2.1-0.6-5.8-1.6-6.3-1.8c-0.6-0.3-1.9-0.9-2.1-1.9c0-0.1,0-0.1,0-0.2
		c0-0.1,0-0.2,0-0.3c0.1-0.4,0.2-0.7,0.4-1c0.3-0.4,0.6-0.6,1.1-0.8c0.6-0.2,1.3-0.4,2.1-0.4c1.4,0,2.6,0.4,3.5,1.1
		c0.1,0.1,0.2,0.2,0.4,0.3c0.2,0.2,0.4,0.4,0.6,0.6c0.5,0.5,0.9,1.2,1.3,1.9l11-5.9c-3.6-6.1-9.8-9.2-16.8-9.2
		c-2.6,0-5.2,0.4-7.5,1.2c-0.1,0-0.2,0.1-0.4,0.1c-0.2,0.1-0.5,0.2-0.7,0.3c-0.1,0.1-0.2,0.1-0.4,0.2c-0.4,0.2-0.7,0.3-1,0.5
		c-0.2,0.1-0.4,0.3-0.6,0.4c-0.4,0.3-0.8,0.5-1.2,0.8c-0.9,0.7-1.7,1.4-2.3,2.3c-0.2,0.3-0.4,0.6-0.6,0.9c-0.1,0.2-0.3,0.4-0.4,0.6
		c-0.4,0.6-0.7,1.3-0.9,2c-0.1,0.4-0.2,0.7-0.3,1.1c-0.2,0.6-0.3,1.3-0.4,2c-0.1,0.5-0.1,1.1-0.1,1.7
		C130.9,59.9,130.6,64.9,134.2,68.3z"/>
</g>
<path class="st5" d="M181.6,91.2c0.2-0.4,0.4-0.9,0.4-1.3c0-1.6-1.3-2.9-2.9-2.9h-3.4v4.3H181.6z M177.5,88.7h1.5c0.5,0,1,0.5,1,1.1
	s-0.4,1.1-1,1.1h-1.5V88.7z"/>
<path class="st5" d="M167.6,91.2c0-1.5,1.1-2.5,2.5-2.5c1.4,0,2.5,1,2.5,2.5h2c0-2.5-2-4.4-4.4-4.4c-2.5,0-4.4,1.9-4.4,4.4H167.6z"
	/>
<path class="st0" d="M181.6,91.2h-6v4.3h2v-2.8h0.9l1.6,2.8h2.1l-1.8-3.1C180.9,92.1,181.3,91.7,181.6,91.2z"/>
<path class="st0" d="M172.5,91.2c-0.1,1.3-1.2,2.2-2.5,2.2c-1.3,0-2.3-0.9-2.5-2.2h-2c0.2,2.4,2.1,4.1,4.4,4.1
	c2.4,0,4.3-1.8,4.4-4.1H172.5z"/>
</svg>
