<?xml version="1.0" encoding="utf-8"?>
<!-- Generator: Adobe Illustrator 21.0.0, SVG Export Plug-In . SVG Version: 6.00 Build 0)  -->
<svg version="1.1" id="Calque_1" xmlns="http://www.w3.org/2000/svg" xmlns:xlink="http://www.w3.org/1999/xlink" x="0px" y="0px"
	 viewBox="0 0 205.5 160.5" style="enable-background:new 0 0 205.5 160.5;" xml:space="preserve">
<style type="text/css">
	.st0{fill:#038390;}
	.st1{fill:#1D1D1B;}
	.st2{fill:#010101;}
	.st3{fill:#03828F;}
</style>
<g>
	<path class="st0" d="M28.6,120.2v9.7h-2.2v-3.9h-3v3.9h-2.2v-9.7h2.2v3.7h3v-3.7H28.6z"/>
	<path class="st0" d="M33.7,128.3c0.6,0,1.1-0.2,1.3-0.5l1.7,1c-0.7,0.9-1.7,1.4-3,1.4c-2.4,0-3.8-1.6-3.8-3.7s1.5-3.7,3.7-3.7
		c2,0,3.5,1.6,3.5,3.7c0,0.3,0,0.6-0.1,0.8h-4.9C32.3,128,33,128.3,33.7,128.3z M35,125.7c-0.2-0.8-0.8-1.1-1.5-1.1
		c-0.8,0-1.3,0.4-1.5,1.1H35z"/>
	<path class="st0" d="M42.4,122.8v2.4c-0.9-0.1-2.1,0.2-2.1,1.6v3.1h-2.1V123h2.1v1.2C40.6,123.3,41.5,122.8,42.4,122.8z"/>
	<path class="st0" d="M50.3,123v6.9h-2.1v-0.7c-0.5,0.5-1.1,0.8-2.1,0.8c-1.8,0-3.3-1.6-3.3-3.7s1.5-3.7,3.3-3.7
		c0.9,0,1.6,0.3,2.1,0.8V123H50.3z M48.2,126.5c0-1-0.7-1.7-1.6-1.7s-1.6,0.7-1.6,1.7s0.7,1.7,1.6,1.7S48.2,127.5,48.2,126.5z"/>
	<path class="st0" d="M58.4,123v6.9h-2.1v-0.7c-0.4,0.5-1.1,0.8-2,0.8c-1.4,0-2.6-1-2.6-2.9V123h2.1v3.9c0,0.9,0.5,1.3,1.2,1.3
		c0.8,0,1.3-0.4,1.3-1.4V123H58.4z"/>
	<path class="st0" d="M65.2,127.8c0,1.6-1.4,2.3-2.9,2.3c-1.4,0-2.4-0.5-3-1.6l1.8-1c0.2,0.5,0.6,0.8,1.2,0.8c0.5,0,0.7-0.2,0.7-0.4
		c0-0.8-3.4-0.4-3.4-2.8c0-1.5,1.3-2.3,2.7-2.3c1.1,0,2.1,0.5,2.7,1.5l-1.8,1c-0.2-0.4-0.5-0.6-0.9-0.6c-0.4,0-0.6,0.1-0.6,0.4
		C61.8,125.8,65.2,125.3,65.2,127.8z"/>
	<path class="st0" d="M68.7,123H70v2h-1.3v4.9h-2.1V125h-0.9v-2h0.9c0-1.9,1.1-3.1,3.4-3v2C69.2,121.9,68.7,122.2,68.7,123z"/>
	<path class="st0" d="M70.2,126.5c0-2.1,1.6-3.7,3.7-3.7s3.7,1.6,3.7,3.7s-1.6,3.7-3.7,3.7S70.2,128.5,70.2,126.5z M75.4,126.5
		c0-1-0.7-1.6-1.6-1.6c-0.9,0-1.6,0.7-1.6,1.6s0.7,1.6,1.6,1.6C74.7,128.1,75.4,127.4,75.4,126.5z"/>
	<path class="st0" d="M82.8,122.8v2.4c-0.9-0.1-2.1,0.2-2.1,1.6v3.1h-2.1V123h2.1v1.2C81,123.3,82,122.8,82.8,122.8z"/>
	<path class="st0" d="M90.7,120.2v9.7h-2.1v-0.7c-0.5,0.5-1.1,0.8-2.1,0.8c-1.8,0-3.3-1.6-3.3-3.7s1.5-3.7,3.3-3.7
		c0.9,0,1.6,0.3,2.1,0.8v-3.4H90.7z M88.6,126.5c0-1-0.7-1.7-1.6-1.7s-1.6,0.7-1.6,1.7s0.7,1.7,1.6,1.7S88.6,127.5,88.6,126.5z"/>
	<path class="st0" d="M95.8,128.3c0.6,0,1.1-0.2,1.3-0.5l1.7,1c-0.7,0.9-1.7,1.4-3,1.4c-2.4,0-3.8-1.6-3.8-3.7s1.5-3.7,3.7-3.7
		c2,0,3.5,1.6,3.5,3.7c0,0.3,0,0.6-0.1,0.8h-4.9C94.4,128,95,128.3,95.8,128.3z M97,125.7c-0.2-0.8-0.8-1.1-1.5-1.1
		c-0.8,0-1.3,0.4-1.5,1.1H97z"/>
	<path class="st0" d="M104.4,122.8v2.4c-0.9-0.1-2.1,0.2-2.1,1.6v3.1h-2.1V123h2.1v1.2C102.6,123.3,103.5,122.8,104.4,122.8z"/>
	<path class="st0" d="M111.9,123v6.9h-2.1v-0.7c-0.4,0.5-1.1,0.8-2,0.8c-1.4,0-2.6-1-2.6-2.9V123h2.1v3.9c0,0.9,0.5,1.3,1.2,1.3
		c0.8,0,1.3-0.4,1.3-1.4V123H111.9z"/>
	<path class="st0" d="M120.1,125.7v4.3H118V126c0-0.9-0.5-1.3-1.2-1.3c-0.8,0-1.3,0.4-1.3,1.4v3.8h-2.1V123h2.1v0.7
		c0.4-0.5,1.1-0.8,2-0.8C118.9,122.8,120.1,123.8,120.1,125.7z"/>
	<path class="st0" d="M128.6,123v6.6c0,2.3-1.8,3.3-3.7,3.3c-1.4,0-2.6-0.5-3.3-1.7l1.8-1c0.3,0.5,0.7,0.9,1.6,0.9
		c1,0,1.6-0.5,1.6-1.5v-0.6c-0.5,0.6-1.1,0.9-2,0.9c-2,0-3.4-1.6-3.4-3.5s1.4-3.5,3.4-3.5c0.9,0,1.6,0.3,2,0.9V123H128.6z
		 M126.6,126.3c0-1-0.7-1.6-1.7-1.6c-1,0-1.7,0.7-1.7,1.6s0.7,1.6,1.7,1.6C125.9,127.9,126.6,127.3,126.6,126.3z"/>
	<path class="st0" d="M135.5,127.8c0,1.6-1.4,2.3-2.9,2.3c-1.4,0-2.4-0.5-3-1.6l1.8-1c0.2,0.5,0.6,0.8,1.2,0.8
		c0.5,0,0.7-0.2,0.7-0.4c0-0.8-3.4-0.4-3.4-2.8c0-1.5,1.3-2.3,2.7-2.3c1.1,0,2.1,0.5,2.7,1.5l-1.8,1c-0.2-0.4-0.5-0.6-0.9-0.6
		c-0.4,0-0.6,0.1-0.6,0.4C132.1,125.8,135.5,125.3,135.5,127.8z"/>
	<path class="st1" d="M149.8,129.9h-2.2v-5.6l-2.5,4.1h-0.3l-2.5-4.1v5.6h-2.2v-9.7h2.2l2.6,4.3l2.6-4.3h2.2V129.9z"/>
	<path class="st1" d="M151.1,126.5c0-2.1,1.6-3.7,3.7-3.7c2,0,3.7,1.6,3.7,3.7s-1.6,3.7-3.7,3.7
		C152.7,130.1,151.1,128.5,151.1,126.5z M156.3,126.5c0-1-0.7-1.6-1.6-1.6c-0.9,0-1.6,0.7-1.6,1.6s0.7,1.6,1.6,1.6
		C155.6,128.1,156.3,127.4,156.3,126.5z"/>
	<path class="st1" d="M166.7,120.2v9.7h-2.1v-0.7c-0.5,0.5-1.1,0.8-2.1,0.8c-1.8,0-3.3-1.6-3.3-3.7s1.5-3.7,3.3-3.7
		c0.9,0,1.6,0.3,2.1,0.8v-3.4H166.7z M164.6,126.5c0-1-0.7-1.7-1.6-1.7s-1.6,0.7-1.6,1.7s0.7,1.7,1.6,1.7S164.6,127.5,164.6,126.5z"
		/>
	<path class="st1" d="M174.8,123v6.9h-2.1v-0.7c-0.4,0.5-1.1,0.8-2,0.8c-1.4,0-2.6-1-2.6-2.9V123h2.1v3.9c0,0.9,0.5,1.3,1.2,1.3
		c0.8,0,1.3-0.4,1.3-1.4V123H174.8z"/>
	<path class="st1" d="M181.6,127.8c0,1.6-1.4,2.3-2.9,2.3c-1.4,0-2.4-0.5-3-1.6l1.8-1c0.2,0.5,0.6,0.8,1.2,0.8
		c0.5,0,0.7-0.2,0.7-0.4c0-0.8-3.4-0.4-3.4-2.8c0-1.5,1.3-2.3,2.7-2.3c1.1,0,2.1,0.5,2.7,1.5l-1.8,1c-0.2-0.4-0.5-0.6-0.9-0.6
		c-0.4,0-0.6,0.1-0.6,0.4C178.2,125.8,181.6,125.3,181.6,127.8z"/>
</g>
<g>
	<g>
		<g>
			<defs>
				<rect id="SVGID_1_" x="164.3" y="85.6" width="19.2" height="5.5"/>
			</defs>
			<clipPath id="SVGID_2_">
				<use xlink:href="#SVGID_1_"  style="overflow:visible;"/>
			</clipPath>
		</g>
	</g>
</g>
<g>
	<defs>
		<rect id="SVGID_3_" x="163.3" y="91.2" width="21.9" height="5.2"/>
	</defs>
	<clipPath id="SVGID_4_">
		<use xlink:href="#SVGID_3_"  style="overflow:visible;"/>
	</clipPath>
</g>
<path class="st2" d="M139.7,71.6c0.1,0,0.1,0.1,0.2,0.1c0.1,0,0.2,0.1,0.3,0.1c0.1,0,0.1,0.1,0.2,0.1"/>
<g>
	<g>
		<g>
			<path class="st3" d="M121.9,108.5c4.2,0,7.8-3.5,7.8-7.8c0-4.2-3.5-7.8-7.8-7.8c-4.2,0-7.8,3.5-7.8,7.8
				C114.2,105,117.7,108.5,121.9,108.5z"/>
		</g>
	</g>
	<g>
		<path class="st3" d="M150.7,63.6c-2.7,0.5-4.8,2.9-4.8,5.8c0,2.2,0.9,4.3,3.1,5.2c1.8,0.6,3.1,1.4,3.1,2.5c0,1.7-1.6,2.7-4.7,2.7
			c-3.8,0-6.2-1.8-7.3-5.1L128.9,81c3.3,7,9.9,10.2,18.5,10.2c9.3,0,17.9-4.2,17.9-14.1c0-9-6.7-11.9-12.6-13.5
			C152.6,63.5,151.8,63.4,150.7,63.6z"/>
	</g>
	<path class="st3" d="M115.5,91.2h13.1l0-27.5c-0.3,3.2-3.1,5.9-6.5,5.9c-3.5,0-6.5-3-6.5-6.5V46.2l-12.8-0.1v24.5
		c0,5.3-2.2,7.8-6.3,7.8c-4,0-6.1-1.9-6.6-6.3l0-0.1l0-2.7l0-1.1c0-5.2-2.1-7.5-6.2-7.5c-4.7,0-6.6,2.7-6.6,8.9l-0.1,23.3h0
		c0,3.6-2.8,6.6-6.3,6.6c-3.6,0-6.5-3.1-6.5-6.6h0v0l0-46.8h0c0,0,0,0,0,0c0-3.8-3.3-7-7.1-7s-6.7,3.2-6.7,7c0,0,0,0,0,0h0v46.9v0
		H36.4v12.9v0l53.3,0v0l0-21.5c2.3,3.1,4.8,6.1,10.4,6.1c8.2,0,14.7-5.9,15.4-16.3L115.5,91.2z"/>
</g>
<g>
	<g>
		<path class="st2" d="M121.9,42.4c4.2,0,7.8-3.5,7.8-7.8s-3.5-7.8-7.8-7.8c-4.2,0-7.8,3.5-7.8,7.8
			C114.2,38.8,117.7,42.4,121.9,42.4z"/>
	</g>
	<path class="st2" d="M115.6,46.2v16.9c0,3.5,3,6.5,6.5,6.5c3.5,0,6.5-3,6.5-6.5V46.2H115.6z"/>
	<path class="st2" d="M87.3,48.6c-5.7,0-8,2.5-10.4,5.7V33l-56,0v13.2h15.5v47h13.8v-47h0c0,0,0,0,0,0c0-3.8,2.9-7,6.7-7
		s7.1,3.2,7.1,7c0,0,0,0,0,0h0l0,46.8h0c0,3.5,2.9,6.6,6.5,6.6c3.6,0,6.3-3.1,6.3-6.6h0L77,69.8c0-6.1,1.9-8.9,6.6-8.9
		c4.1,0,6.2,2.3,6.2,7.6v3.7c0.5,4.3,2.6,6.3,6.6,6.3c4.1,0,6.3-2.5,6.3-7.8v-4.9C102.3,54.8,95.8,48.6,87.3,48.6z"/>
	<path d="M134.2,68.3c3.6,3.3,8.4,4.4,14.3,6c0.2,0.1,0.4,0.1,0.6,0.2c0,0-0.1,0-0.1,0c-2.3-0.9-3.1-3-3.1-5.2
		c0-2.9,2.1-5.3,4.8-5.8c0.8-0.1,1.4-0.1,1.8,0c-2.1-0.6-5.8-1.6-6.3-1.8c-0.6-0.3-1.9-0.9-2.1-1.9c0-0.1,0-0.1,0-0.2
		c0-0.1,0-0.2,0-0.3c0.1-0.4,0.2-0.7,0.4-1c0.3-0.4,0.6-0.6,1.1-0.8c0.6-0.2,1.3-0.4,2.1-0.4c1.4,0,2.6,0.4,3.5,1.1
		c0.1,0.1,0.2,0.2,0.4,0.3c0.2,0.2,0.4,0.4,0.6,0.6c0.5,0.5,0.9,1.2,1.3,1.9l11-5.9c-3.6-6.1-9.8-9.2-16.8-9.2
		c-2.6,0-5.2,0.4-7.5,1.2c-0.1,0-0.2,0.1-0.4,0.1c-0.2,0.1-0.5,0.2-0.7,0.3c-0.1,0.1-0.2,0.1-0.4,0.2c-0.4,0.2-0.7,0.3-1,0.5
		c-0.2,0.1-0.4,0.3-0.6,0.4c-0.4,0.3-0.8,0.5-1.2,0.8c-0.9,0.7-1.7,1.4-2.3,2.3c-0.2,0.3-0.4,0.6-0.6,0.9c-0.1,0.2-0.3,0.4-0.4,0.6
		c-0.4,0.6-0.7,1.3-0.9,2c-0.1,0.4-0.2,0.7-0.3,1.1c-0.2,0.6-0.3,1.3-0.4,2c-0.1,0.5-0.1,1.1-0.1,1.7
		C130.9,59.9,130.6,64.9,134.2,68.3z"/>
</g>
<path class="st2" d="M181.6,91.2c0.2-0.4,0.4-0.9,0.4-1.3c0-1.6-1.3-2.9-2.9-2.9h-3.4v4.3H181.6z M177.5,88.7h1.5c0.5,0,1,0.5,1,1.1
	s-0.4,1.1-1,1.1h-1.5V88.7z"/>
<path class="st2" d="M167.6,91.2c0-1.5,1.1-2.5,2.5-2.5c1.4,0,2.5,1,2.5,2.5h2c0-2.5-2-4.4-4.4-4.4c-2.5,0-4.4,1.9-4.4,4.4H167.6z"
	/>
<path class="st3" d="M181.6,91.2h-6v4.3h2v-2.8h0.9l1.6,2.8h2.1l-1.8-3.1C180.9,92.1,181.3,91.7,181.6,91.2z"/>
<path class="st3" d="M172.5,91.2c-0.1,1.3-1.2,2.2-2.5,2.2c-1.3,0-2.3-0.9-2.5-2.2h-2c0.2,2.4,2.1,4.1,4.4,4.1
	c2.4,0,4.3-1.8,4.4-4.1H172.5z"/>
</svg>
