<?xml version="1.0" encoding="utf-8"?>
<!-- Generator: Adobe Illustrator 21.0.0, SVG Export Plug-In . SVG Version: 6.00 Build 0)  -->
<svg version="1.1" id="Calque_1" xmlns="http://www.w3.org/2000/svg" xmlns:xlink="http://www.w3.org/1999/xlink" x="0px" y="0px"
	 viewBox="0 0 205.5 160.5" style="enable-background:new 0 0 205.5 160.5;" xml:space="preserve">
<style type="text/css">
	.st0{fill:#038390;}
	.st1{enable-background:new    ;}
</style>
<g>
	<path d="M64.7,17.9c-28.2,0-51.1,22.9-51.1,51.1s22.9,51.1,51.1,51.1s51.1-22.9,51.1-51.1C115.9,40.8,93,17.9,64.7,17.9z
		 M64.7,93.7C51.1,93.7,40,82.7,40,69c0-13.6,11-24.7,24.7-24.7s24.7,11,24.7,24.7C89.4,82.7,78.4,93.7,64.7,93.7z"/>
	<path class="st0" d="M140.9,17.9c-28.2,0-51.1,22.9-51.1,51.1s22.9,51.1,51.1,51.1S192,97.2,192,69
		C192.1,40.8,169.1,17.9,140.9,17.9z M140.9,93.7c-13.6,0-24.7-11-24.7-24.7c0-13.6,11-24.7,24.7-24.7s24.7,11,24.7,24.7
		S154.5,93.7,140.9,93.7z"/>
	<circle cx="103" cy="67.9" r="13.2"/>
	<path d="M64.7,17.9c-3.1,0-6.1,0.3-9.1,0.8v26.6l0.6,0.6c2.6-1,5.5-1.5,8.5-1.5c13.6,0,24.7,11,24.7,24.7l26.8-1.1
		C116.2,39.7,93,17.9,64.7,17.9z"/>
	<g class="st1">
		<path class="st0" d="M14,142.8v-9.5h3.2v9.2c0,1.1,0.5,2,2.2,2s2.2-0.9,2.2-2v-9.2h3.2v9.5c0,3-2.3,4.8-5.4,4.8
			C16.3,147.6,14,145.8,14,142.8z"/>
		<path class="st0" d="M36.7,141.1v6.2h-3v-5.7c0-1.2-0.8-1.8-1.7-1.8c-1.1,0-1.9,0.6-1.9,2.1v5.5h-3v-10h3v0.9
			c0.5-0.7,1.5-1.2,2.9-1.2C35,137,36.7,138.4,36.7,141.1z"/>
		<path class="st0" d="M43.8,144.9c0.8,0,1.5-0.3,1.9-0.8l2.4,1.4c-1,1.4-2.5,2.1-4.4,2.1c-3.4,0-5.6-2.3-5.6-5.3
			c0-3,2.2-5.3,5.3-5.3c2.9,0,5.1,2.3,5.1,5.3c0,0.4,0,0.8-0.1,1.2h-7.1C41.8,144.5,42.7,144.9,43.8,144.9z M45.7,141.2
			c-0.3-1.2-1.2-1.6-2.1-1.6c-1.1,0-1.9,0.6-2.2,1.6H45.7z"/>
		<path class="st0" d="M60,141.1v6.2h-3v-5.7c0-1.2-0.8-1.8-1.7-1.8c-1.1,0-1.9,0.6-1.9,2.1v5.5h-3v-10h3v0.9
			c0.5-0.7,1.5-1.2,2.9-1.2C58.3,137,60,138.4,60,141.1z"/>
		<path class="st0" d="M72.4,133.2v14h-3v-0.9c-0.7,0.8-1.6,1.2-3,1.2c-2.6,0-4.8-2.3-4.8-5.3c0-3,2.2-5.3,4.8-5.3
			c1.3,0,2.3,0.5,3,1.2v-5H72.4z M69.4,142.3c0-1.5-1-2.4-2.4-2.4c-1.4,0-2.4,0.9-2.4,2.4s1,2.4,2.4,2.4
			C68.4,144.7,69.4,143.8,69.4,142.3z"/>
		<path class="st0" d="M74.6,132.6h3v14.6h-3V132.6z"/>
		<path class="st0" d="M79.5,134.6c0-1,0.8-1.8,1.8-1.8c1,0,1.8,0.8,1.8,1.8s-0.8,1.8-1.8,1.8C80.3,136.4,79.5,135.5,79.5,134.6z
			 M79.8,137.3h3v10h-3V137.3z"/>
		<path class="st0" d="M84.5,142.3c0-3,2.3-5.3,5.3-5.3c1.9,0,3.7,1,4.5,2.6l-2.6,1.5c-0.3-0.7-1.1-1.1-1.9-1.1
			c-1.3,0-2.3,0.9-2.3,2.3c0,1.4,1,2.3,2.3,2.3c0.9,0,1.6-0.4,1.9-1.1l2.6,1.5c-0.9,1.6-2.6,2.6-4.5,2.6
			C86.8,147.6,84.5,145.3,84.5,142.3z"/>
		<path class="st0" d="M105.2,141.1v6.2h-3v-5.7c0-1.2-0.8-1.8-1.7-1.8c-1.1,0-1.9,0.6-1.9,2.1v5.5h-3v-14h3v5
			c0.5-0.7,1.5-1.2,2.9-1.2C103.5,137,105.2,138.4,105.2,141.1z"/>
		<path class="st0" d="M112.4,144.9c0.8,0,1.5-0.3,1.9-0.8l2.4,1.4c-1,1.4-2.5,2.1-4.4,2.1c-3.4,0-5.6-2.3-5.6-5.3
			c0-3,2.2-5.3,5.3-5.3c2.9,0,5.1,2.3,5.1,5.3c0,0.4,0,0.8-0.1,1.2H110C110.4,144.5,111.3,144.9,112.4,144.9z M114.2,141.2
			c-0.3-1.2-1.2-1.6-2.1-1.6c-1.1,0-1.9,0.6-2.2,1.6H114.2z"/>
		<path class="st0" d="M124.9,137.1v3.4c-1.2-0.2-3,0.3-3,2.3v4.5h-3v-10h3v1.8C122.3,137.7,123.7,137.1,124.9,137.1z"/>
	</g>
	<g class="st1">
		<path d="M145.6,147.3h-3.2v-8.2l-3.6,6h-0.4l-3.6-6v8.2h-3.2v-14h3.2l3.8,6.2l3.8-6.2h3.2V147.3z"/>
		<path d="M147.4,142.3c0-3,2.4-5.3,5.3-5.3c2.9,0,5.3,2.3,5.3,5.3c0,3-2.4,5.3-5.3,5.3C149.7,147.6,147.4,145.3,147.4,142.3z
			 M155,142.3c0-1.4-1-2.4-2.3-2.4c-1.3,0-2.3,0.9-2.3,2.4s1,2.4,2.3,2.4C154,144.6,155,143.7,155,142.3z"/>
		<path d="M170,133.2v14h-3v-0.9c-0.7,0.8-1.6,1.2-3,1.2c-2.6,0-4.8-2.3-4.8-5.3c0-3,2.2-5.3,4.8-5.3c1.3,0,2.3,0.5,3,1.2v-5H170z
			 M167,142.3c0-1.5-1-2.4-2.4-2.4s-2.4,0.9-2.4,2.4s1,2.4,2.4,2.4S167,143.8,167,142.3z"/>
		<path d="M181.7,137.3v10h-3v-0.9c-0.5,0.7-1.5,1.2-2.9,1.2c-2,0-3.8-1.4-3.8-4.2v-6.2h3v5.7c0,1.2,0.8,1.8,1.7,1.8
			c1.1,0,1.9-0.6,1.9-2.1v-5.5H181.7z"/>
		<path d="M191.6,144.3c0,2.3-2,3.3-4.2,3.3c-2,0-3.5-0.8-4.3-2.4l2.6-1.5c0.3,0.8,0.8,1.2,1.7,1.2c0.7,0,1.1-0.2,1.1-0.6
			c0-1.1-4.9-0.5-4.9-4c0-2.2,1.8-3.3,3.9-3.3c1.6,0,3.1,0.7,3.9,2.1l-2.6,1.4c-0.3-0.5-0.7-0.9-1.3-0.9c-0.5,0-0.8,0.2-0.8,0.6
			C186.7,141.3,191.6,140.6,191.6,144.3z"/>
	</g>
</g>
</svg>
