<?xml version="1.0" encoding="utf-8"?>
<!-- Generator: Adobe Illustrator 21.0.0, SVG Export Plug-In . SVG Version: 6.00 Build 0)  -->
<svg version="1.1" id="Calque_1" xmlns="http://www.w3.org/2000/svg" xmlns:xlink="http://www.w3.org/1999/xlink" x="0px" y="0px"
	 viewBox="0 0 205.5 160.5" style="enable-background:new 0 0 205.5 160.5;" xml:space="preserve">
<style type="text/css">
	.st0{fill:#038390;}
	.st1{enable-background:new    ;}
</style>
<g>
	<path d="M64.7,11c-28.2,0-51.1,22.9-51.1,51.1s22.9,51.1,51.1,51.1s51.1-22.9,51.1-51.1C115.9,33.9,93,11,64.7,11z M64.7,86.8
		c-13.6,0-24.7-11-24.7-24.7c0-13.6,11-24.7,24.7-24.7s24.7,11,24.7,24.7C89.4,75.8,78.4,86.8,64.7,86.8z"/>
	<path class="st0" d="M140.9,11c-28.2,0-51.1,22.9-51.1,51.1s22.9,51.1,51.1,51.1S192,90.3,192,62.1C192.1,33.9,169.1,11,140.9,11z
		 M140.9,86.8c-13.6,0-24.7-11-24.7-24.7c0-13.6,11-24.7,24.7-24.7s24.7,11,24.7,24.7S154.5,86.8,140.9,86.8z"/>
	<circle cx="103" cy="61" r="13.2"/>
	<path d="M64.7,11c-3.1,0-6.1,0.3-9.1,0.8v26.6l0.6,0.6c2.6-1,5.5-1.5,8.5-1.5c13.6,0,24.7,11,24.7,24.7l26.8-1.1
		C116.2,32.8,93,11,64.7,11z"/>
	<g class="st1">
		<path class="st0" d="M41.4,131.8v10.6h-5.2v-10.2c0-1.7-0.8-2.8-2.5-2.8c-1.7,0-2.7,1.2-2.7,3.3v9.8h-5.2v-10.2
			c0-1.7-0.8-2.8-2.5-2.8c-1.7,0-2.7,1.2-2.7,3.3v9.8h-5.2v-17.3h5.2v1.6c0.8-1.2,2.3-2.1,4.6-2.1c2,0,3.6,0.8,4.5,2.3
			c1-1.4,2.6-2.3,5-2.3C38.8,124.6,41.4,127.4,41.4,131.8z"/>
		<path class="st0" d="M44.1,133.7c0-5.2,4.1-9.1,9.2-9.1c5.1,0,9.2,4,9.2,9.1s-4.1,9.1-9.2,9.1C48.2,142.9,44.1,138.9,44.1,133.7z
			 M57.3,133.7c0-2.5-1.7-4.1-4-4.1c-2.3,0-4,1.6-4,4.1s1.7,4.1,4,4.1C55.6,137.8,57.3,136.2,57.3,133.7z"/>
		<path class="st0" d="M83.2,118.1v24.2H78v-1.6c-1.1,1.3-2.8,2.1-5.2,2.1c-4.5,0-8.3-4-8.3-9.1s3.7-9.1,8.3-9.1
			c2.3,0,4,0.8,5.2,2.1v-8.6H83.2z M78,133.7c0-2.6-1.7-4.2-4.1-4.2c-2.4,0-4.1,1.6-4.1,4.2s1.7,4.2,4.1,4.2
			C76.3,138,78,136.3,78,133.7z"/>
		<path class="st0" d="M95.8,138.2c1.4,0,2.6-0.6,3.3-1.3l4.2,2.4c-1.7,2.4-4.3,3.6-7.6,3.6c-5.9,0-9.6-4-9.6-9.1s3.7-9.1,9.2-9.1
			c5.1,0,8.8,3.9,8.8,9.1c0,0.7-0.1,1.4-0.2,2.1H91.7C92.3,137.6,93.9,138.2,95.8,138.2z M99,131.9c-0.6-2-2.1-2.7-3.7-2.7
			c-2,0-3.3,1-3.8,2.7H99z"/>
	</g>
	<g class="st1">
		<path d="M115.3,120.4c0-1.7,1.4-3.1,3.1-3.1s3.1,1.4,3.1,3.1s-1.4,3.1-3.1,3.1S115.3,122.1,115.3,120.4z M115.8,125.1h5.2v17.3
			h-5.2V125.1z"/>
		<path d="M141.4,131.8v10.6h-5.2v-9.9c0-2.1-1.4-3.2-3-3.2c-1.9,0-3.2,1.1-3.2,3.6v9.5h-5.2v-17.3h5.2v1.6c0.9-1.3,2.7-2.1,5-2.1
			C138.5,124.6,141.4,127.1,141.4,131.8z"/>
		<path d="M160.9,142.4h-5.2v-12.3h-4.4v12.3h-5.2v-12.3h-2.3v-5h2.3c0-4.8,2.7-7.4,8.4-7.4c1.4,0,2.8,0.2,4.3,0.5v4.8
			c-1.6-0.2-3-0.3-4.3-0.3c-1.9,0-3.2,0.4-3.2,2.4h9.6V142.4z"/>
		<path d="M181.4,131.8v10.6h-5.2v-9.9c0-2.1-1.4-3.2-3-3.2c-1.9,0-3.2,1.1-3.2,3.6v9.5h-5.2v-17.3h5.2v1.6c0.9-1.3,2.7-2.1,5-2.1
			C178.4,124.6,181.4,127.1,181.4,131.8z"/>
		<path d="M184.4,120.4c0-1.7,1.4-3.1,3.1-3.1s3.1,1.4,3.1,3.1s-1.4,3.1-3.1,3.1S184.4,122.1,184.4,120.4z M184.9,125.1h5.2v17.3
			h-5.2V125.1z"/>
	</g>
</g>
</svg>
