<?xml version="1.0" encoding="utf-8"?>
<!-- Generator: Adobe Illustrator 21.0.0, SVG Export Plug-In . SVG Version: 6.00 Build 0)  -->
<svg version="1.1" id="Calque_1" xmlns="http://www.w3.org/2000/svg" xmlns:xlink="http://www.w3.org/1999/xlink" x="0px" y="0px"
	 viewBox="0 0 205.5 160.5" style="enable-background:new 0 0 205.5 160.5;" xml:space="preserve">
<style type="text/css">
	.st0{fill:#FFFFFF;}
	.st1{enable-background:new    ;}
</style>
<g>
	<path d="M65,11.7c-28.2,0-51.1,22.9-51.1,51.1s22.9,51.1,51.1,51.1s51.1-22.9,51.1-51.1C116.2,34.6,93.3,11.7,65,11.7z M65,87.5
		c-13.6,0-24.7-11-24.7-24.7c0-13.6,11-24.7,24.7-24.7s24.7,11,24.7,24.7C89.7,76.5,78.7,87.5,65,87.5z"/>
	<path class="st0" d="M141.2,11.7c-28.2,0-51.1,22.9-51.1,51.1s22.9,51.1,51.1,51.1s51.1-22.9,51.1-51.1
		C192.4,34.6,169.4,11.7,141.2,11.7z M141.2,87.5c-13.6,0-24.7-11-24.7-24.7c0-13.6,11-24.7,24.7-24.7s24.7,11,24.7,24.7
		C165.9,76.5,154.8,87.5,141.2,87.5z"/>
	<circle cx="103.3" cy="61.7" r="13.2"/>
	<path d="M65,11.7c-3.1,0-6.1,0.3-9.1,0.8v26.6l0.6,0.6c2.6-1,5.5-1.5,8.5-1.5c13.6,0,24.7,11,24.7,24.7l26.8-1.1
		C116.5,33.5,93.3,11.7,65,11.7z"/>
	<g class="st1">
		<path class="st0" d="M36.8,139.9v9h-4.4v-8.6c0-1.5-0.7-2.4-2.1-2.4c-1.5,0-2.3,1-2.3,2.8v8.3h-4.4v-8.6c0-1.5-0.7-2.4-2.1-2.4
			c-1.5,0-2.3,1-2.3,2.8v8.3h-4.4v-14.6h4.4v1.3c0.7-1,2-1.8,3.9-1.8c1.7,0,3,0.7,3.8,1.9c0.8-1.2,2.2-1.9,4.2-1.9
			C34.6,133.8,36.8,136.2,36.8,139.9z"/>
		<path class="st0" d="M39,141.5c0-4.4,3.5-7.7,7.8-7.7c4.3,0,7.8,3.4,7.8,7.7c0,4.4-3.5,7.7-7.8,7.7C42.5,149.3,39,145.9,39,141.5z
			 M50.2,141.5c0-2.1-1.5-3.5-3.4-3.5s-3.4,1.4-3.4,3.5s1.5,3.5,3.4,3.5S50.2,143.6,50.2,141.5z"/>
		<path class="st0" d="M72.1,128.4v20.5h-4.4v-1.4c-1,1.1-2.4,1.8-4.4,1.8c-3.8,0-7-3.4-7-7.7c0-4.4,3.2-7.7,7-7.7
			c2,0,3.4,0.7,4.4,1.8v-7.2H72.1z M67.7,141.5c0-2.2-1.5-3.6-3.5-3.6c-2,0-3.5,1.4-3.5,3.6c0,2.2,1.5,3.6,3.5,3.6
			C66.2,145.1,67.7,143.7,67.7,141.5z"/>
		<path class="st0" d="M74.6,141.5c0-4.4,3.5-7.7,7.8-7.7c4.3,0,7.8,3.4,7.8,7.7c0,4.4-3.5,7.7-7.8,7.7
			C78,149.3,74.6,145.9,74.6,141.5z M85.7,141.5c0-2.1-1.5-3.5-3.4-3.5s-3.4,1.4-3.4,3.5s1.5,3.5,3.4,3.5S85.7,143.6,85.7,141.5z"/>
	</g>
	<g class="st1">
		<path d="M99.4,130.3c0-1.4,1.2-2.6,2.6-2.6s2.6,1.2,2.6,2.6c0,1.4-1.2,2.6-2.6,2.6S99.4,131.7,99.4,130.3z M99.8,134.2h4.4v14.6
			h-4.4V134.2z"/>
		<path d="M121.5,139.9v9h-4.4v-8.3c0-1.8-1.1-2.7-2.5-2.7c-1.6,0-2.7,0.9-2.7,3v8h-4.4v-14.6h4.4v1.4c0.8-1.1,2.3-1.8,4.2-1.8
			C119,133.8,121.5,135.9,121.5,139.9z"/>
		<path d="M138,148.8h-4.4v-10.4h-3.7v10.4h-4.4v-10.4h-2v-4.2h2c0-4.1,2.3-6.3,7.1-6.3c1.2,0,2.4,0.1,3.7,0.4v4
			c-1.3-0.1-2.5-0.2-3.7-0.2c-1.6,0-2.7,0.4-2.7,2h8.1V148.8z"/>
		<path d="M155.2,139.9v9h-4.4v-8.3c0-1.8-1.1-2.7-2.5-2.7c-1.6,0-2.7,0.9-2.7,3v8h-4.4v-14.6h4.4v1.4c0.8-1.1,2.3-1.8,4.2-1.8
			C152.7,133.8,155.2,135.9,155.2,139.9z"/>
		<path d="M157.8,130.3c0-1.4,1.2-2.6,2.6-2.6c1.4,0,2.6,1.2,2.6,2.6c0,1.4-1.2,2.6-2.6,2.6C159,132.9,157.8,131.7,157.8,130.3z
			 M158.3,134.2h4.4v14.6h-4.4V134.2z"/>
		<path d="M171.4,138.4v5.2c0,1.3,1.1,1.4,3,1.3v4c-5.7,0.6-7.4-1.1-7.4-5.2v-5.2h-2.3v-4.2h2.3v-2.8l4.4-1.3v4.1h3v4.2H171.4z"/>
		<path d="M175.9,141.5c0-4.4,3.5-7.7,7.8-7.7c4.3,0,7.8,3.4,7.8,7.7c0,4.4-3.5,7.7-7.8,7.7C179.4,149.3,175.9,145.9,175.9,141.5z
			 M187,141.5c0-2.1-1.5-3.5-3.4-3.5s-3.4,1.4-3.4,3.5s1.5,3.5,3.4,3.5S187,143.6,187,141.5z"/>
	</g>
</g>
</svg>
