<?xml version="1.0" encoding="utf-8"?>
<!-- Generator: Adobe Illustrator 21.0.0, SVG Export Plug-In . SVG Version: 6.00 Build 0)  -->
<svg version="1.1" id="Calque_1" xmlns="http://www.w3.org/2000/svg" xmlns:xlink="http://www.w3.org/1999/xlink" x="0px" y="0px"
	 viewBox="0 0 205.5 160.5" style="enable-background:new 0 0 205.5 160.5;" xml:space="preserve">
<style type="text/css">
	.st0{fill:#038390;}
	.st1{font-family:'Gilroy-ExtraBold';}
	.st2{font-size:22.3207px;}
	.st3{fill:#010101;}
	.st4{fill:#03828F;}
</style>
<path d="M305.6,18.8c-28.2,0-51.1,22.9-51.1,51.1s22.9,51.1,51.1,51.1c28.2,0,51.1-22.9,51.1-51.1C356.9,41.7,333.9,18.8,305.6,18.8
	z M305.6,94.6c-13.6,0-24.7-11-24.7-24.7c0-13.6,11-24.7,24.7-24.7c13.7,0,24.7,11,24.7,24.7C330.4,83.5,319.3,94.6,305.6,94.6z"/>
<path class="st0" d="M381.9,18.8c-28.2,0-51.1,22.9-51.1,51.1s22.9,51.1,51.1,51.1S433,98.1,433,69.9S410,18.8,381.9,18.8z
	 M381.9,94.6c-13.6,0-24.7-11-24.7-24.7c0-13.6,11-24.7,24.7-24.7s24.7,11,24.7,24.7C406.5,83.5,395.5,94.6,381.9,94.6z"/>
<circle cx="344" cy="68.8" r="13.2"/>
<path d="M305.6,18.8c-3.1,0-6.1,0.3-9.1,0.8v26.6l0.6,0.6c2.6-1,5.5-1.5,8.5-1.5c13.6,0,24.7,11,24.7,24.7l26.8-1.1
	C357.1,40.5,333.9,18.8,305.6,18.8z"/>
<text transform="matrix(1 0 0 1 12.3325 147.4727)"><tspan x="0" y="0" class="st0 st1 st2">challenge</tspan><tspan x="103.2" y="0" class="st1 st2"> mode</tspan></text>
<g>
	<g>
		<g>
			<defs>
				<rect id="SVGID_1_" x="156.3" y="96" width="19.2" height="5.5"/>
			</defs>
			<clipPath id="SVGID_2_">
				<use xlink:href="#SVGID_1_"  style="overflow:visible;"/>
			</clipPath>
		</g>
	</g>
</g>
<g>
	<defs>
		<rect id="SVGID_3_" x="155.3" y="101.6" width="21.9" height="5.2"/>
	</defs>
	<clipPath id="SVGID_4_">
		<use xlink:href="#SVGID_3_"  style="overflow:visible;"/>
	</clipPath>
</g>
<path class="st3" d="M131.7,82c0.1,0,0.1,0.1,0.2,0.1c0.1,0,0.2,0.1,0.3,0.1c0.1,0,0.1,0.1,0.2,0.1"/>
<g>
	<g>
		<g>
			<path class="st4" d="M113.9,118.9c4.2,0,7.8-3.5,7.8-7.8c0-4.2-3.5-7.8-7.8-7.8c-4.2,0-7.8,3.5-7.8,7.8
				C106.2,115.3,109.7,118.9,113.9,118.9z"/>
		</g>
	</g>
	<g>
		<path class="st4" d="M142.7,73.9c-2.7,0.5-4.8,2.9-4.8,5.8c0,2.2,0.9,4.3,3.1,5.2c1.8,0.6,3.1,1.4,3.1,2.5c0,1.7-1.6,2.7-4.7,2.7
			c-3.8,0-6.2-1.8-7.3-5.1l-11.2,6.4c3.3,7,9.9,10.2,18.5,10.2c9.3,0,17.9-4.2,17.9-14.1c0-9-6.7-11.9-12.6-13.5
			C144.6,73.9,143.8,73.7,142.7,73.9z"/>
	</g>
	<path class="st4" d="M107.5,101.6h13.1l0-27.5c-0.3,3.2-3.1,5.9-6.5,5.9c-3.5,0-6.5-3-6.5-6.5V56.6l-12.8-0.1V81
		c0,5.3-2.2,7.8-6.3,7.8c-4,0-6.1-1.9-6.6-6.3l0-0.1l0-2.7l0-1.1c0-5.2-2.1-7.5-6.2-7.5c-4.7,0-6.6,2.7-6.6,8.9l-0.1,23.3h0
		c0,3.6-2.8,6.6-6.3,6.6c-3.6,0-6.5-3.1-6.5-6.6h0v0l0-46.8h0c0,0,0,0,0,0c0-3.8-3.3-7-7.1-7s-6.7,3.2-6.7,7c0,0,0,0,0,0h0v46.9v0
		H28.5v12.9v0l53.3,0v0l0-21.5c2.3,3.1,4.8,6.1,10.4,6.1c8.2,0,14.7-5.9,15.4-16.3L107.5,101.6z"/>
</g>
<g>
	<g>
		<path class="st3" d="M113.9,52.8c4.2,0,7.8-3.5,7.8-7.8s-3.5-7.8-7.8-7.8c-4.2,0-7.8,3.5-7.8,7.8
			C106.2,49.2,109.7,52.8,113.9,52.8z"/>
	</g>
	<path class="st3" d="M107.6,56.6v16.9c0,3.5,3,6.5,6.5,6.5c3.5,0,6.5-3,6.5-6.5V56.6H107.6z"/>
	<path class="st3" d="M79.3,58.9c-5.7,0-8,2.5-10.4,5.7V43.4l-56,0v13.2h15.5v47h13.8v-47h0c0,0,0,0,0,0c0-3.8,2.9-7,6.7-7
		s7.1,3.2,7.1,7c0,0,0,0,0,0h0l0,46.8h0c0,3.5,2.9,6.6,6.5,6.6c3.6,0,6.3-3.1,6.3-6.6h0L69,80.1c0-6.1,1.9-8.9,6.6-8.9
		c4.1,0,6.2,2.3,6.2,7.6v3.7c0.5,4.3,2.6,6.3,6.6,6.3c4.1,0,6.3-2.5,6.3-7.8v-4.9C94.4,65.1,87.8,58.9,79.3,58.9z"/>
	<path d="M126.3,78.7c3.6,3.3,8.4,4.4,14.3,6c0.2,0.1,0.4,0.1,0.6,0.2c0,0-0.1,0-0.1,0c-2.3-0.9-3.1-3-3.1-5.2
		c0-2.9,2.1-5.3,4.8-5.8c0.8-0.1,1.4-0.1,1.8,0c-2.1-0.6-5.8-1.6-6.3-1.8c-0.6-0.3-1.9-0.9-2.1-1.9c0-0.1,0-0.1,0-0.2
		c0-0.1,0-0.2,0-0.3c0.1-0.4,0.2-0.7,0.4-1c0.3-0.4,0.6-0.6,1.1-0.8c0.6-0.2,1.3-0.4,2.1-0.4c1.4,0,2.6,0.4,3.5,1.1
		c0.1,0.1,0.2,0.2,0.4,0.3c0.2,0.2,0.4,0.4,0.6,0.6c0.5,0.5,0.9,1.2,1.3,1.9l11-5.9c-3.6-6.1-9.8-9.2-16.8-9.2
		c-2.6,0-5.2,0.4-7.5,1.2c-0.1,0-0.2,0.1-0.4,0.1c-0.2,0.1-0.5,0.2-0.7,0.3c-0.1,0.1-0.2,0.1-0.4,0.2c-0.4,0.2-0.7,0.3-1,0.5
		c-0.2,0.1-0.4,0.3-0.6,0.4c-0.4,0.3-0.8,0.5-1.2,0.8c-0.9,0.7-1.7,1.4-2.3,2.3c-0.2,0.3-0.4,0.6-0.6,0.9c-0.1,0.2-0.3,0.4-0.4,0.6
		c-0.4,0.6-0.7,1.3-0.9,2c-0.1,0.4-0.2,0.7-0.3,1.1c-0.2,0.6-0.3,1.3-0.4,2c-0.1,0.5-0.1,1.1-0.1,1.7
		C122.9,70.3,122.6,75.3,126.3,78.7z"/>
</g>
<path class="st3" d="M173.6,101.5c0.2-0.4,0.4-0.9,0.4-1.3c0-1.6-1.3-2.9-2.9-2.9h-3.4v4.3H173.6z M169.6,99.1h1.5
	c0.5,0,1,0.5,1,1.1s-0.4,1.1-1,1.1h-1.5V99.1z"/>
<path class="st3" d="M159.6,101.5c0-1.5,1.1-2.5,2.5-2.5c1.4,0,2.5,1,2.5,2.5h2c0-2.5-2-4.4-4.4-4.4c-2.5,0-4.4,1.9-4.4,4.4H159.6z"
	/>
<path class="st4" d="M173.6,101.5h-6v4.3h2V103h0.9l1.6,2.8h2.1l-1.8-3.1C172.9,102.4,173.3,102,173.6,101.5z"/>
<path class="st4" d="M164.5,101.5c-0.1,1.3-1.2,2.2-2.5,2.2c-1.3,0-2.3-0.9-2.5-2.2h-2c0.2,2.4,2.1,4.1,4.4,4.1
	c2.4,0,4.3-1.8,4.4-4.1H164.5z"/>
</svg>
