<?xml version="1.0" encoding="utf-8"?>
<!-- Generator: Adobe Illustrator 21.0.0, SVG Export Plug-In . SVG Version: 6.00 Build 0)  -->
<svg version="1.1" id="Calque_1" xmlns="http://www.w3.org/2000/svg" xmlns:xlink="http://www.w3.org/1999/xlink" x="0px" y="0px"
	 viewBox="0 0 205.5 160.5" style="enable-background:new 0 0 205.5 160.5;" xml:space="preserve">
<style type="text/css">
	.st0{fill:#FFFFFF;}
	.st1{enable-background:new    ;}
</style>
<path d="M64.4,18.8c-28.2,0-51.1,22.9-51.1,51.1S36.2,121,64.4,121s51.1-22.9,51.1-51.1C115.6,41.7,92.6,18.8,64.4,18.8z M64.4,94.6
	c-13.6,0-24.7-11-24.7-24.7c0-13.6,11-24.7,24.7-24.7s24.7,11,24.7,24.7C89.1,83.5,78,94.6,64.4,94.6z"/>
<path class="st0" d="M140.6,18.8c-28.2,0-51.1,22.9-51.1,51.1s22.9,51.1,51.1,51.1s51.1-22.9,51.1-51.1
	C191.7,41.7,168.8,18.8,140.6,18.8z M140.6,94.6c-13.6,0-24.7-11-24.7-24.7c0-13.6,11-24.7,24.7-24.7s24.7,11,24.7,24.7
	C165.2,83.5,154.2,94.6,140.6,94.6z"/>
<circle cx="102.7" cy="68.8" r="13.2"/>
<path d="M64.4,18.8c-3.1,0-6.1,0.3-9.1,0.8v26.6l0.6,0.6c2.6-1,5.5-1.5,8.5-1.5c13.6,0,24.7,11,24.7,24.7l26.8-1.1
	C115.9,40.5,92.6,18.8,64.4,18.8z"/>
<g class="st1">
	<path class="st0" d="M13.7,127.1c0-1.4,1.2-2.6,2.6-2.6s2.6,1.2,2.6,2.6c0,1.4-1.2,2.6-2.6,2.6S13.7,128.5,13.7,127.1z M14.2,131
		h4.4v14.6h-4.4V131z"/>
	<path class="st0" d="M35.8,136.6v9h-4.4v-8.3c0-1.8-1.1-2.7-2.5-2.7c-1.6,0-2.7,0.9-2.7,3v8h-4.4V131h4.4v1.4
		c0.8-1.1,2.3-1.8,4.2-1.8C33.3,130.6,35.8,132.7,35.8,136.6z"/>
	<path class="st0" d="M52.3,145.6h-4.4v-10.4h-3.7v10.4h-4.4v-10.4h-2V131h2c0-4.1,2.3-6.3,7.1-6.3c1.2,0,2.4,0.1,3.7,0.4v4
		c-1.3-0.1-2.5-0.2-3.7-0.2c-1.6,0-2.7,0.4-2.7,2h8.1V145.6z"/>
	<path class="st0" d="M69.6,136.6v9h-4.4v-8.3c0-1.8-1.1-2.7-2.5-2.7c-1.6,0-2.7,0.9-2.7,3v8h-4.4V131h4.4v1.4
		c0.8-1.1,2.3-1.8,4.2-1.8C67.1,130.6,69.6,132.7,69.6,136.6z"/>
	<path class="st0" d="M72.1,127.1c0-1.4,1.2-2.6,2.6-2.6s2.6,1.2,2.6,2.6c0,1.4-1.2,2.6-2.6,2.6S72.1,128.5,72.1,127.1z M72.6,131
		H77v14.6h-4.4V131z"/>
	<path class="st0" d="M85.8,135.2v5.2c0,1.3,1.1,1.4,3,1.3v4c-5.7,0.6-7.4-1.1-7.4-5.2v-5.2H79V131h2.3v-2.8l4.4-1.3v4.1h3v4.2H85.8
		z"/>
	<path class="st0" d="M98.4,142.1c1.2,0,2.2-0.5,2.8-1.1l3.5,2c-1.4,2-3.6,3-6.4,3c-5,0-8.1-3.4-8.1-7.7c0-4.4,3.2-7.7,7.8-7.7
		c4.3,0,7.4,3.3,7.4,7.7c0,0.6-0.1,1.2-0.2,1.8H94.9C95.4,141.6,96.8,142.1,98.4,142.1z M101.1,136.8c-0.5-1.7-1.8-2.3-3.1-2.3
		c-1.7,0-2.8,0.8-3.2,2.3H101.1z"/>
</g>
<g class="st1">
	<path d="M137.7,136.6v9h-4.4V137c0-1.5-0.7-2.4-2.1-2.4c-1.5,0-2.3,1-2.3,2.8v8.3h-4.4V137c0-1.5-0.7-2.4-2.1-2.4
		c-1.5,0-2.3,1-2.3,2.8v8.3h-4.4V131h4.4v1.3c0.7-1,2-1.8,3.9-1.8c1.7,0,3,0.7,3.8,1.9c0.8-1.2,2.2-1.9,4.2-1.9
		C135.5,130.6,137.7,133,137.7,136.6z"/>
	<path d="M140,138.3c0-4.4,3.5-7.7,7.8-7.7s7.8,3.4,7.8,7.7c0,4.4-3.5,7.7-7.8,7.7S140,142.7,140,138.3z M151.1,138.3
		c0-2.1-1.5-3.5-3.4-3.5s-3.4,1.4-3.4,3.5s1.5,3.5,3.4,3.5S151.1,140.4,151.1,138.3z"/>
	<path d="M173,125.1v20.5h-4.4v-1.4c-1,1.1-2.4,1.8-4.4,1.8c-3.8,0-7-3.4-7-7.7c0-4.4,3.2-7.7,7-7.7c2,0,3.4,0.7,4.4,1.8v-7.2H173z
		 M168.6,138.3c0-2.2-1.5-3.6-3.5-3.6s-3.5,1.4-3.5,3.6c0,2.2,1.5,3.6,3.5,3.6S168.6,140.5,168.6,138.3z"/>
	<path d="M183.7,142.1c1.2,0,2.2-0.5,2.8-1.1l3.5,2c-1.4,2-3.6,3-6.4,3c-5,0-8.1-3.4-8.1-7.7c0-4.4,3.2-7.7,7.8-7.7
		c4.3,0,7.4,3.3,7.4,7.7c0,0.6-0.1,1.2-0.2,1.8h-10.4C180.7,141.6,182.1,142.1,183.7,142.1z M186.4,136.8c-0.5-1.7-1.8-2.3-3.1-2.3
		c-1.7,0-2.8,0.8-3.2,2.3H186.4z"/>
</g>
</svg>
