<?xml version="1.0" standalone="no"?>
<!DOCTYPE svg PUBLIC "-//W3C//DTD SVG 20010904//EN"
 "http://www.w3.org/TR/2001/REC-SVG-20010904/DTD/svg10.dtd">
<svg version="1.0" xmlns="http://www.w3.org/2000/svg"
 width="1134.000000pt" height="1134.000000pt" viewBox="0 0 1134.000000 1134.000000"
 preserveAspectRatio="xMidYMid meet">
<metadata>
Created by potrace 1.11, written by Peter Selinger 2001-2013
</metadata>
<g transform="translate(0.000000,1134.000000) scale(0.100000,-0.100000)"
fill="#000000" stroke="none">
<path d="M6928 8424 c-2 -1 -17 -5 -33 -8 -40 -7 -136 -46 -156 -63 -8 -7 -19
-13 -24 -13 -4 0 -38 -30 -74 -67 -62 -63 -126 -165 -136 -219 -2 -10 -4 -19
-5 -19 -16 0 -16 -200 0 -255 8 -25 14 -47 15 -50 0 -3 14 -32 30 -65 31 -62
154 -195 181 -195 8 0 14 -3 14 -8 0 -14 116 -59 180 -69 55 -8 205 -3 205 7
0 1 6 3 48 13 58 14 150 77 218 149 43 45 104 153 115 202 15 65 18 87 17 146
0 55 -3 86 -17 145 -1 6 -10 27 -19 49 -9 21 -17 42 -17 47 0 5 -4 9 -10 9 -5
0 -10 7 -10 15 0 26 -141 160 -200 191 -30 15 -59 29 -65 31 -5 1 -28 7 -50
14 -36 10 -200 21 -207 13z"/>
<path d="M207 8008 c-9 -5 -12 -117 -12 -445 l1 -438 69 -2 c39 -1 75 -2 80
-3 6 -2 15 -1 20 0 12 2 206 2 220 -1 6 -1 15 0 20 1 12 2 206 2 220 -1 6 -1
15 0 20 1 19 4 167 1 172 -4 3 -3 15 -1 27 4 13 4 29 4 39 -1 9 -6 17 -6 17
-1 0 9 53 8 69 -3 6 -3 11 -2 11 3 0 9 47 8 56 -1 7 -7 6 -155 -1 -166 -3 -6
-3 -11 2 -11 8 0 8 -431 -1 -462 -2 -10 -1 -18 2 -18 8 0 6 -434 -2 -462 -2
-10 -1 -18 2 -18 8 0 6 -434 -2 -462 -2 -10 -1 -18 2 -18 6 0 7 -291 2 -410
-1 -19 -1 -363 -1 -763 1 -401 -1 -733 -4 -738 -4 -5 -3 -9 2 -9 8 0 8 -428 1
-436 -2 -2 -2 -19 0 -39 4 -34 6 -35 46 -36 226 -3 3539 1 3544 5 4 2 7 326 7
720 l0 715 20 -23 c11 -13 29 -35 40 -49 58 -73 135 -146 206 -194 49 -34 156
-86 177 -86 6 0 12 -3 12 -7 0 -3 8 -6 18 -7 9 0 28 -4 42 -7 37 -9 139 -19
190 -19 109 0 295 33 349 62 9 5 19 9 24 10 39 4 208 101 250 144 15 15 27 25
27 22 0 -9 90 88 135 145 24 31 57 83 75 115 18 33 35 65 39 70 19 26 83 217
95 285 2 14 5 25 6 25 2 0 6 27 15 95 4 30 10 60 13 67 4 6 6 -200 4 -458 l-3
-469 438 2 438 3 2 540 c2 558 5 2239 4 2310 l-1 40 -870 2 -870 1 0 -586 c0
-323 0 -593 0 -599 0 -7 -3 -13 -7 -13 -5 0 -8 15 -8 33 1 17 -3 50 -8 72 -5
22 -10 51 -12 65 -12 89 -113 358 -137 368 -4 2 -8 10 -8 18 0 8 -4 14 -10 14
-5 0 -10 6 -10 13 0 18 -92 131 -159 195 -113 108 -266 192 -416 227 -5 1 -17
5 -25 8 -52 19 -390 32 -390 14 0 -4 -3 -6 -8 -3 -12 7 -110 -18 -172 -45
-110 -46 -208 -124 -297 -235 -79 -99 -71 -179 -69 624 1 468 -2 712 -9 713
-38 6 -3749 3 -3758 -3z"/>
<path d="M8627 7154 c-1 -1 -31 -5 -67 -8 -36 -4 -96 -14 -135 -22 -38 -9 -77
-17 -85 -19 -19 -3 -36 -9 -130 -47 -41 -16 -81 -30 -87 -30 -7 -1 -13 -5 -13
-10 0 -4 -5 -8 -11 -8 -13 0 -134 -78 -169 -109 -63 -56 -78 -70 -118 -116
-54 -61 -113 -162 -147 -251 -14 -38 -26 -70 -25 -71 0 -2 0 -4 -1 -5 0 -2 -2
-10 -4 -18 -2 -8 -6 -28 -10 -45 -14 -60 -14 -311 0 -364 7 -28 14 -55 14 -59
5 -37 69 -184 84 -190 4 -2 7 -8 7 -13 0 -23 105 -135 180 -190 36 -27 70 -52
75 -57 32 -26 304 -147 350 -156 11 -3 40 -12 65 -20 46 -16 185 -58 208 -62
13 -2 100 -28 162 -47 19 -6 38 -11 42 -12 3 0 10 -3 14 -7 4 -5 14 -8 23 -8
27 0 132 -58 156 -86 60 -69 31 -165 -64 -214 -51 -26 -79 -31 -187 -35 -88
-3 -177 7 -219 24 -125 49 -220 134 -273 244 -18 37 -34 67 -36 67 -2 0 -37
-20 -78 -45 -42 -25 -80 -45 -87 -45 -6 0 -11 -4 -11 -10 0 -5 -9 -10 -19 -10
-11 0 -21 -4 -23 -9 -1 -4 -38 -27 -80 -50 -43 -24 -80 -47 -84 -52 -3 -5 -14
-9 -25 -9 -10 0 -19 -4 -19 -8 0 -5 -15 -16 -32 -25 -18 -9 -64 -35 -103 -57
-38 -22 -78 -43 -87 -46 -10 -4 -18 -10 -18 -14 0 -4 -10 -11 -22 -14 -13 -3
-31 -13 -42 -20 -17 -14 -16 -18 24 -90 23 -42 48 -83 56 -91 9 -8 13 -15 11
-15 -23 0 196 -218 269 -267 116 -79 272 -150 389 -179 35 -9 40 -10 60 -17
19 -5 64 -14 125 -22 231 -32 498 -23 698 23 23 5 42 8 42 5 0 -3 6 -1 13 5 6
5 28 13 47 18 51 11 58 14 127 45 24 10 46 19 51 19 4 0 13 5 20 12 6 6 18 13
26 14 30 4 194 125 245 181 79 85 161 213 161 250 0 7 5 13 10 13 6 0 10 6 8
13 -1 6 4 29 11 51 29 83 38 164 36 296 -1 74 -5 146 -8 160 -4 14 -10 41 -13
60 -14 75 -74 206 -127 275 -32 42 -143 155 -152 155 -2 0 -24 15 -48 33 -43
33 -247 137 -277 142 -3 0 -18 5 -35 12 -55 21 -70 26 -80 28 -5 2 -41 12 -80
25 -38 12 -77 23 -85 25 -8 2 -42 12 -75 21 -33 9 -65 17 -72 18 -7 1 -16 5
-19 9 -4 4 -15 7 -24 7 -10 0 -59 14 -111 31 -191 63 -252 142 -188 245 59 97
298 109 434 22 58 -38 165 -159 165 -188 0 -9 36 8 185 90 28 15 79 43 115 62
156 84 268 144 305 165 22 12 49 27 61 32 11 5 35 18 52 28 l31 19 -32 50
c-118 183 -287 334 -482 432 -92 46 -243 97 -330 111 -33 6 -76 13 -95 17 -32
6 -307 13 -313 8z"/>
<path d="M10228 4685 c-2 -2 -15 -5 -28 -8 -50 -7 -112 -31 -117 -44 -3 -7
-10 -13 -15 -13 -17 0 -68 -62 -91 -110 -30 -65 -30 -188 0 -250 41 -82 123
-150 198 -164 34 -6 45 -16 19 -16 -34 0 -118 -46 -158 -86 -99 -99 -112 -271
-29 -384 36 -49 60 -68 122 -96 90 -42 195 -33 286 24 48 31 68 53 102 117 36
66 38 185 6 255 -38 80 -107 138 -197 165 l-39 12 49 13 c128 34 214 154 210
290 -3 69 -13 105 -43 153 -41 65 -111 116 -180 131 -45 10 -90 15 -95 11z
m108 -154 c48 -27 74 -71 79 -132 5 -67 -39 -155 -79 -157 -5 0 -12 -6 -16
-12 -11 -18 -101 -20 -135 -3 -64 32 -92 74 -99 145 -12 139 128 228 250 159z
m-8 -595 c48 -25 82 -77 86 -131 4 -48 -11 -115 -26 -115 -4 0 -8 -6 -8 -13 0
-8 -21 -25 -47 -39 -85 -45 -178 -21 -230 59 -27 40 -23 139 7 184 47 71 141
95 218 55z"/>
<path d="M10649 4670 l-24 -5 0 -567 c0 -311 3 -569 7 -573 8 -9 226 -10 234
-2 3 3 12 3 20 0 8 -3 20 0 28 6 7 6 15 9 18 6 3 -3 25 13 50 34 48 43 75 107
69 166 -3 39 -44 108 -77 132 l-25 19 54 94 c30 52 56 102 59 110 2 8 -22 59
-54 114 l-59 99 35 33 c46 44 67 85 68 138 1 79 -57 163 -131 187 -35 12 -228
18 -272 9z m254 -144 c7 -10 14 -33 15 -51 4 -50 -35 -77 -107 -73 l-55 3 -1
65 c0 36 5 69 10 73 19 15 124 2 138 -17z m-80 -247 c24 -37 67 -112 67 -118
0 -5 9 -20 20 -34 20 -25 20 -26 2 -59 -93 -165 -87 -156 -122 -163 -11 -2
-23 1 -27 8 -10 17 -10 361 1 368 9 7 54 5 59 -2z m77 -511 c20 -22 24 -46 14
-85 -9 -32 -71 -47 -149 -35 -8 2 -13 121 -6 140 1 1 28 2 61 2 48 0 63 -4 80
-22z"/>
<path d="M6904 3959 c-3 -5 -9 -7 -14 -4 -4 2 -37 -8 -74 -23 -395 -164 -448
-685 -92 -919 49 -33 131 -68 183 -78 32 -6 148 -7 178 -1 89 18 208 70 227
100 4 6 8 8 8 5 0 -4 17 10 38 30 109 104 162 221 167 369 9 236 -167 463
-402 518 -61 14 -210 16 -219 3z"/>
</g>
</svg>
