<?xml version="1.0" encoding="utf-8"?>
<!-- Generator: Adobe Illustrator 21.0.0, SVG Export Plug-In . SVG Version: 6.00 Build 0)  -->
<svg version="1.1" id="Calque_1" xmlns="http://www.w3.org/2000/svg" xmlns:xlink="http://www.w3.org/1999/xlink" x="0px" y="0px"
	 viewBox="0 0 205.5 160.5" style="enable-background:new 0 0 205.5 160.5;" xml:space="preserve">
<style type="text/css">
	.st0{fill:#038390;}
	.st1{font-family:'Gilroy-ExtraBold';}
	.st2{font-size:29.2625px;}
</style>
<path d="M64.4,18.8c-28.2,0-51.1,22.9-51.1,51.1c0,28.2,22.9,51.1,51.1,51.1s51.1-22.9,51.1-51.1C115.6,41.7,92.6,18.8,64.4,18.8z
	 M64.4,94.6c-13.6,0-24.7-11-24.7-24.7c0-13.6,11-24.7,24.7-24.7s24.7,11,24.7,24.7C89.1,83.5,78,94.6,64.4,94.6z"/>
<path class="st0" d="M140.6,18.8c-28.2,0-51.1,22.9-51.1,51.1c0,28.2,22.9,51.1,51.1,51.1s51.1-22.9,51.1-51.1
	C191.7,41.7,168.8,18.8,140.6,18.8z M140.6,94.6c-13.6,0-24.7-11-24.7-24.7c0-13.6,11-24.7,24.7-24.7s24.7,11,24.7,24.7
	C165.2,83.5,154.2,94.6,140.6,94.6z"/>
<circle cx="102.7" cy="68.8" r="13.2"/>
<path d="M64.4,18.8c-3.1,0-6.1,0.3-9.1,0.8v26.6l0.6,0.6c2.6-1,5.5-1.5,8.5-1.5c13.6,0,24.7,11,24.7,24.7l26.8-1.1
	C115.9,40.5,92.6,18.8,64.4,18.8z"/>
<text transform="matrix(1 0 0 1 12.5675 145.6265)"><tspan x="0" y="0" class="st0 st1 st2">infinite</tspan><tspan x="94.3" y="0" class="st1 st2"> mode</tspan></text>
<path d="M-415.6,33.6c-28.2,0-51.1,22.9-51.1,51.1c0,28.2,22.9,51.1,51.1,51.1s51.1-22.9,51.1-51.1
	C-364.4,56.5-387.4,33.6-415.6,33.6z M-415.6,109.4c-13.6,0-24.7-11-24.7-24.7c0-13.6,11-24.7,24.7-24.7s24.7,11,24.7,24.7
	C-390.9,98.4-402,109.4-415.6,109.4z"/>
<path class="st0" d="M-339.4,33.6c-28.2,0-51.1,22.9-51.1,51.1c0,28.2,22.9,51.1,51.1,51.1s51.1-22.9,51.1-51.1
	C-288.3,56.5-311.2,33.6-339.4,33.6z M-339.4,109.4c-13.6,0-24.7-11-24.7-24.7c0-13.6,11-24.7,24.7-24.7s24.7,11,24.7,24.7
	C-314.8,98.4-325.8,109.4-339.4,109.4z"/>
<circle cx="-377.3" cy="83.6" r="13.2"/>
<path d="M-415.6,33.6c-3.1,0-6.1,0.3-9.1,0.8V61l0.6,0.6c2.6-1,5.5-1.5,8.5-1.5c13.6,0,24.7,11,24.7,24.7l26.8-1.1
	C-364.1,55.4-387.4,33.6-415.6,33.6z"/>
<text transform="matrix(1 0 0 1 -467.4325 160.492)"><tspan x="0" y="0" class="st0 st1 st2">infinite</tspan><tspan x="94.3" y="0" class="st1 st2"> mode</tspan></text>
<path d="M-420.3,243.6c-28.2,0-51.1,22.9-51.1,51.1c0,28.2,22.9,51.1,51.1,51.1s51.1-22.9,51.1-51.1
	C-369.1,266.5-392,243.6-420.3,243.6z M-420.3,319.4c-13.6,0-24.7-11-24.7-24.7c0-13.6,11-24.7,24.7-24.7s24.7,11,24.7,24.7
	C-395.6,308.4-406.6,319.4-420.3,319.4z"/>
<path class="st0" d="M-344.1,243.6c-28.2,0-51.1,22.9-51.1,51.1c0,28.2,22.9,51.1,51.1,51.1s51.1-22.9,51.1-51.1
	C-292.9,266.5-315.9,243.6-344.1,243.6z M-344.1,319.4c-13.6,0-24.7-11-24.7-24.7c0-13.6,11-24.7,24.7-24.7s24.7,11,24.7,24.7
	C-319.4,308.4-330.5,319.4-344.1,319.4z"/>
<circle cx="-382" cy="293.6" r="13.2"/>
<path d="M-420.3,243.6c-3.1,0-6.1,0.3-9.1,0.8V271l0.6,0.6c2.6-1,5.5-1.5,8.5-1.5c13.6,0,24.7,11,24.7,24.7l26.8-1.1
	C-368.8,265.4-392,243.6-420.3,243.6z"/>
<text transform="matrix(1 0 0 1 -472.0995 372.9742)"><tspan x="0" y="0" class="st0 st1" style="font-size:20.0685px;">Unendlicher</tspan><tspan x="112.4" y="0" class="st1" style="font-size:20.0685px;"> Modus</tspan></text>
<path d="M-420.3,445.6c-28.2,0-51.1,22.9-51.1,51.1c0,28.2,22.9,51.1,51.1,51.1s51.1-22.9,51.1-51.1
	C-369.1,468.5-392,445.6-420.3,445.6z M-420.3,521.4c-13.6,0-24.7-11-24.7-24.7c0-13.6,11-24.7,24.7-24.7s24.7,11,24.7,24.7
	C-395.6,510.4-406.6,521.4-420.3,521.4z"/>
<path class="st0" d="M-344.1,445.6c-28.2,0-51.1,22.9-51.1,51.1c0,28.2,22.9,51.1,51.1,51.1s51.1-22.9,51.1-51.1
	C-292.9,468.5-315.9,445.6-344.1,445.6z M-344.1,521.4c-13.6,0-24.7-11-24.7-24.7c0-13.6,11-24.7,24.7-24.7s24.7,11,24.7,24.7
	C-319.4,510.4-330.5,521.4-344.1,521.4z"/>
<circle cx="-382" cy="495.6" r="13.2"/>
<path d="M-420.3,445.6c-3.1,0-6.1,0.3-9.1,0.8V473l0.6,0.6c2.6-1,5.5-1.5,8.5-1.5c13.6,0,24.7,11,24.7,24.7l26.8-1.1
	C-368.8,467.4-392,445.6-420.3,445.6z"/>
<text transform="matrix(1 0 0 1 -472.0995 582.7974)"><tspan x="0" y="0" class="st0 st1" style="font-size:29.2731px;">modo</tspan><tspan x="77.7" y="0" class="st1" style="font-size:29.2731px;"> infinito</tspan></text>
<path d="M-410.3-169.7c-28.2,0-51.1,22.9-51.1,51.1c0,28.2,22.9,51.1,51.1,51.1s51.1-22.9,51.1-51.1
	C-359.1-146.8-382-169.7-410.3-169.7z M-410.3-93.9c-13.6,0-24.7-11-24.7-24.7c0-13.6,11-24.7,24.7-24.7s24.7,11,24.7,24.7
	C-385.6-104.9-396.6-93.9-410.3-93.9z"/>
<path class="st0" d="M-334.1-169.7c-28.2,0-51.1,22.9-51.1,51.1c0,28.2,22.9,51.1,51.1,51.1s51.1-22.9,51.1-51.1
	C-282.9-146.8-305.9-169.7-334.1-169.7z M-334.1-93.9c-13.6,0-24.7-11-24.7-24.7c0-13.6,11-24.7,24.7-24.7s24.7,11,24.7,24.7
	C-309.4-104.9-320.5-93.9-334.1-93.9z"/>
<circle cx="-372" cy="-119.7" r="13.2"/>
<path d="M-410.3-169.7c-3.1,0-6.1,0.3-9.1,0.8v26.6l0.6,0.6c2.6-1,5.5-1.5,8.5-1.5c13.6,0,24.7,11,24.7,24.7l26.8-1.1
	C-358.8-147.9-382-169.7-410.3-169.7z"/>
<text transform="matrix(1 0 0 1 -461.4159 -38.271)"><tspan x="0" y="0" class="st0 st1" style="font-size:34.6406px;">mode</tspan><tspan x="91.7" y="0" class="st1" style="font-size:34.6406px;"> infini</tspan></text>
</svg>
