<?xml version="1.0" encoding="utf-8"?>
<!-- Generator: Adobe Illustrator 21.0.0, SVG Export Plug-In . SVG Version: 6.00 Build 0)  -->
<svg version="1.1" id="Calque_1" xmlns="http://www.w3.org/2000/svg" xmlns:xlink="http://www.w3.org/1999/xlink" x="0px" y="0px"
	 viewBox="0 0 1085.8 540.6" style="enable-background:new 0 0 1085.8 540.6;" xml:space="preserve">
<style type="text/css">
	.st0{fill:#FFFFFF;}
	.st1{fill:#010101;}
	.st2{clip-path:url(#SVGID_2_);}
	.st3{clip-path:url(#SVGID_4_);}
</style>
<g>
	<polygon class="st0" points="475.3,279.4 475.2,221.8 409.4,221.8 409.1,400.6 343.2,400.5 343.3,160.3 272.2,160.3 272.2,401.5 
		201.5,401.5 201.5,468.1 201.5,468.1 201.5,468.2 475.2,468.1 475.2,468 475.2,468 	"/>
	<path class="st1" d="M462.7,172c-29.2,0-41.3,13-53.2,29.4V92.3L122,92.4v68h79.5v241.2h70.7V160.4h71.1l-0.1,240.2l65.9,0.1
		l0.5-119.8c0-31.4,9.7-45.5,34-45.5c21.2,0,31.7,11.7,31.7,39.1v70.8H542v-80C541.9,205.7,507.4,172,462.7,172z"/>
	<path class="st0" d="M541.9,159.7v125.9c0,27.4-11.3,40.2-32.5,40.2c-20.6,0-31.5-10-34.1-32.2l-0.1-4.1v68.2
		c11.7,15.9,24.8,31.5,53.4,31.5c44.6,0,79.2-33.7,79.2-93.3V160L541.9,159.7z"/>
	<g>
		<g>
			<path class="st0" d="M640.4,479.9c21.7,0,39.8-18.1,39.8-39.8c0-21.7-18.1-39.8-39.8-39.8c-21.6,0-39.8,18.1-39.8,39.8
				C600.7,461.7,618.8,479.9,640.4,479.9z"/>
		</g>
	</g>
	<g>
		<path class="st1" d="M640.4,140.3c21.7,0,39.8-18.1,39.8-39.8s-18.1-39.8-39.8-39.8c-21.6,0-39.8,18.1-39.8,39.8
			C600.7,122.1,618.8,140.3,640.4,140.3z"/>
	</g>
	<polygon class="st0" points="607.3,380.6 674.1,380.6 674.5,160 607.8,160 	"/>
	<path class="st1" d="M607.8,160v86.7c0,18.1,15.3,33.3,33.4,33.3c18.1,0,33.3-15.2,33.3-33.3V160H607.8z"/>
	<path class="st0" d="M306.6,124.2c19.7,0,36.7,16.4,36.7,36.1s-17.1,35.1-36.7,35.1s-34.4-15.5-34.4-35.1S286.9,124.2,306.6,124.2z
		"/>
	<path class="st1" d="M376.5,368.5c18.3,0,32.6,13.8,32.6,32.1s-14.3,34.1-32.6,34.1s-33.3-16-33.3-34.2S358.2,368.5,376.5,368.5z"
		/>
	<g>
		<g>
			<g>
				<defs>
					<rect id="SVGID_1_" x="858" y="361.6" width="98.7" height="28.5"/>
				</defs>
				<clipPath id="SVGID_2_">
					<use xlink:href="#SVGID_1_"  style="overflow:visible;"/>
				</clipPath>
				<g class="st2">
					<path class="st1" d="M864.7,390.1c0-12.9,10.2-22.9,22.9-22.9c12.6,0,22.9,9.9,22.9,22.9c0,12.9-10.2,22.9-22.9,22.9
						C874.9,412.9,864.7,403,864.7,390.1z M900.4,390.1c0-7.9-5.7-13.1-12.8-13.1c-7.2,0-12.8,5.2-12.8,13.1s5.7,13.1,12.8,13.1
						C894.7,403.1,900.4,397.9,900.4,390.1z"/>
					<path class="st1" d="M930.9,397.6h-4.8V412H916v-44h17.6c8.4,0,15.1,6.7,15.1,15.1c0,5.4-3.3,10.3-8.1,12.8L950,412h-10.8
						L930.9,397.6z M926.1,388.8h7.5c2.8,0,5-2.4,5-5.7s-2.3-5.7-5-5.7h-7.5V388.8z"/>
				</g>
			</g>
		</g>
	</g>
	<g>
		<g>
			<g>
				<defs>
					<rect id="SVGID_3_" x="852.9" y="390.1" width="112.5" height="26.8"/>
				</defs>
				<clipPath id="SVGID_4_">
					<use xlink:href="#SVGID_3_"  style="overflow:visible;"/>
				</clipPath>
				<g class="st3">
					<path class="st0" d="M864.7,388.4c0-12.9,10.2-22.9,22.9-22.9c12.6,0,22.9,9.9,22.9,22.9c0,12.9-10.2,22.9-22.9,22.9
						S864.7,401.3,864.7,388.4z M900.4,388.4c0-7.9-5.7-13.1-12.8-13.1c-7.2,0-12.8,5.2-12.8,13.1s5.7,13.1,12.8,13.1
						S900.4,396.2,900.4,388.4z"/>
					<path class="st0" d="M930.9,397.6h-4.8V412H916v-44h17.6c8.4,0,15.1,6.7,15.1,15.1c0,5.4-3.3,10.3-8.1,12.8L950,412h-10.8
						L930.9,397.6z M926.1,388.8h7.5c2.8,0,5-2.4,5-5.7s-2.3-5.7-5-5.7h-7.5V388.8z"/>
				</g>
			</g>
		</g>
	</g>
	<g>
		<path class="st0" d="M788.4,249c-14.1,2.4-24.8,14.8-24.8,29.6c0,11.5,4.4,22.2,16,26.7c9.5,3.3,15.7,7,15.7,12.8
			c0,8.8-8,13.7-23.9,13.7c-19.5,0-31.9-9.3-37.6-26.1l-57.4,32.7c17.2,35.8,50.8,52.6,95,52.6c47.7,0,91.9-21.7,91.9-72.5
			c0-46-34.3-60.9-64.5-69.4C798,248.9,793.7,248.1,788.4,249z"/>
	</g>
	<path d="M703.7,273.5c18.6,17.1,42.9,22.4,73.2,31c1,0.3,2.1,0.6,3.1,0.9c-0.1,0-0.3-0.1-0.4-0.1c-11.6-4.5-16-15.2-16-26.7
		c0-14.8,10.7-27.2,24.8-29.6c4-0.7,7.4-0.4,9.2-0.1c-10.9-3-29.8-8.1-32.5-9.5c-3.3-1.6-9.6-4.5-10.7-10c0-0.3-0.1-0.7-0.1-1
		c0-0.5,0-1,0.1-1.4c0.3-1.9,1-3.5,2-4.9c1.3-1.8,3.2-3.2,5.6-4.2c2.9-1.2,6.6-1.8,10.9-1.8c7.3,0,13.1,2,18,5.4
		c0.6,0.4,1.2,0.9,1.8,1.4c1.1,0.9,2.2,2,3.2,3.1c2.5,2.8,4.7,6,6.7,9.6l56.6-30.5c-18.6-31.4-50.4-47.3-86.2-47.3
		c-13.6,0-26.8,2.1-38.6,6.4c-0.6,0.2-1.2,0.5-1.8,0.7c-1.2,0.5-2.4,1-3.6,1.5c-0.6,0.3-1.2,0.5-1.8,0.8c-1.8,0.8-3.5,1.7-5.2,2.6
		c-1.1,0.6-2.2,1.3-3.3,1.9c-2.2,1.3-4.2,2.7-6.2,4.3c-4.5,3.4-8.5,7.3-12,11.6c-1.2,1.5-2.2,3-3.3,4.5c-0.7,1-1.3,2.1-2,3.2
		c-1.9,3.3-3.5,6.7-4.8,10.4c-0.7,1.8-1.2,3.7-1.7,5.7c-0.8,3.2-1.5,6.6-1.8,10.2c-0.3,2.8-0.5,5.7-0.5,8.8
		C686.4,230.4,684.9,256.1,703.7,273.5z"/>
	<path class="st1" d="M731.8,290.4c0.3,0.1,0.7,0.3,1,0.4c0.5,0.2,1.1,0.4,1.6,0.6c0.3,0.1,0.6,0.3,1,0.4"/>
</g>
</svg>
