<?xml version="1.0" encoding="utf-8"?>
<!-- Generator: Adobe Illustrator 21.0.0, SVG Export Plug-In . SVG Version: 6.00 Build 0)  -->
<svg version="1.1" id="Calque_1" xmlns="http://www.w3.org/2000/svg" xmlns:xlink="http://www.w3.org/1999/xlink" x="0px" y="0px"
	 viewBox="0 0 1085.8 540.6" style="enable-background:new 0 0 1085.8 540.6;" xml:space="preserve">
<style type="text/css">
	.st0{fill:#03838F;}
	.st1{fill:#010101;}
	.st2{fill:#FFFFFF;}
	.st3{clip-path:url(#SVGID_2_);}
	.st4{clip-path:url(#SVGID_4_);}
</style>
<polygon class="st0" points="409.4,222.7 409.4,159.7 409.1,159.7 409.1,401.5 343.2,401.4 343.2,160.2 272.2,160.2 272.2,401.4 
	201.5,401.1 201.5,469.1 422.3,469.1 422.3,468.9 474.4,468.9 475.2,468.6 475.2,222.7 "/>
<path class="st0" d="M863.3,318.5c0,50.8-44.2,72.5-91.9,72.5c-44.2,0-77.8-16.8-95-52.6l57.4-32.7c5.7,16.8,18.1,26.1,37.6,26.1
	c15.9,0,23.9-4.9,23.9-13.7c0-24.3-108.7-11.5-108.7-87.9c0-48.2,40.7-72.5,86.6-72.5c35.8,0,67.6,15.9,86.2,47.3l-56.6,30.5
	c-6.2-11.5-15-19.4-29.6-19.4c-11.5,0-18.6,4.4-18.6,12.4C754.6,253.5,863.3,236.8,863.3,318.5z"/>
<path class="st1" d="M462.7,171.9c-29.2,0-41.3,13-53.2,29.4V92.2h-66.3v0.1H122v68h79.5v241.2h70.7V160.3h71.1v241.1l66.2,0.1
	l0.1-120.7c0-31.4,9.7-45.5,34-45.5c21.2,0,31.7,11.7,31.7,39.1v70.8h66.7v-80C541.9,205.6,507.4,171.9,462.7,171.9z"/>
<path class="st0" d="M541.9,159.7v125.9c0,27.4-11.3,40.2-32.5,40.2c-20.6,0-31.6-10-34.2-32.2L475,289l-0.7,68.7
	c11.7,15.9,25.7,31.5,54.3,31.5c44.6,0,79.2-33.7,79.2-93.3V160L541.9,159.7z"/>
<g>
	<g>
		<path class="st2" d="M640.4,479.9c21.7,0,39.8-18.1,39.8-39.8c0-21.7-18.1-39.8-39.8-39.8c-21.6,0-39.8,18.1-39.8,39.8
			C600.7,461.7,618.8,479.9,640.4,479.9z"/>
	</g>
</g>
<g>
	<path class="st1" d="M640.4,140.3c21.7,0,39.8-18.1,39.8-39.8c0-21.7-18.1-39.8-39.8-39.8c-21.6,0-39.8,18.1-39.8,39.8
		C600.7,122.1,618.8,140.3,640.4,140.3z"/>
</g>
<polygon class="st0" points="607.3,380.6 674.1,380.6 674.5,160 607.8,160 "/>
<path class="st1" d="M607.8,160v86.7c0,18.1,15.3,33.3,33.4,33.3c18.1,0,33.3-15.2,33.3-33.3V160H607.8z"/>
<g>
	<path class="st1" d="M763.6,278.6c0-16.6,13.4-30,30-30c1.9,0,3.4,0.2,5.1,0.5c-10.7-3-30.6-8.3-33.5-9.7c-3.3-1.6-9.6-4.5-10.7-10
		c0-0.3-0.1-0.7-0.1-1c0-0.5,0-1,0.1-1.4c0.2-1.9,0.9-3.5,1.9-4.9c1.3-1.8,3.2-3.2,5.6-4.2c2.9-1.2,6.6-1.8,10.9-1.8
		c7.3,0,13.1,2,18,5.4c0.6,0.4,1.2,0.9,1.8,1.4c1.1,0.9,2.2,2,3.2,3.1c2.5,2.8,4.7,6,6.7,9.6l56.6-30.5
		c-18.6-31.4-50.4-47.3-86.2-47.3c-13.6,0-26.8,2.1-38.6,6.4c-0.6,0.2-1.2,0.5-1.8,0.7c-1.2,0.5-2.4,1-3.6,1.5
		c-0.6,0.3-1.2,0.5-1.8,0.8c-1.8,0.8-3.5,1.7-5.2,2.6c-1.1,0.6-2.2,1.3-3.3,1.9c-2.2,1.3-4.2,2.7-6.2,4.3c-4.5,3.4-8.5,7.3-12,11.6
		c-1.2,1.5-2.2,3-3.3,4.5c-0.7,1-1.3,2.1-2,3.2c-1.9,3.3-3.5,6.7-4.8,10.4c-0.7,1.8-1.2,3.7-1.7,5.7c-0.8,3.2-1.5,6.6-1.8,10.2
		c-0.3,2.8-0.5,5.7-0.5,8.8c0,1.2,0,2.4,0.1,3.6c0,0.4,0.1,0.8,0.1,1.2c0,0.8,0.1,1.6,0.2,2.3c0,0.5,0.1,0.9,0.2,1.3
		c0.1,0.7,0.2,1.4,0.3,2c0.1,0.5,0.2,0.9,0.2,1.4c0.1,0.6,0.2,1.2,0.3,1.8c0.1,0.5,0.2,0.9,0.3,1.4c0.1,0.6,0.3,1.2,0.4,1.7
		c0.1,0.5,0.2,0.9,0.4,1.3c0.2,0.6,0.3,1.1,0.5,1.6c0.1,0.4,0.3,0.9,0.4,1.3c0.2,0.5,0.4,1,0.6,1.6c0.2,0.4,0.3,0.8,0.5,1.3
		c0.2,0.5,0.4,1,0.6,1.5c0.2,0.4,0.4,0.8,0.6,1.2c0.2,0.5,0.5,1,0.7,1.4c0.2,0.4,0.4,0.8,0.6,1.2c0.3,0.5,0.5,0.9,0.8,1.4
		c0.2,0.4,0.4,0.7,0.6,1.1c0.3,0.4,0.6,0.9,0.8,1.3c0.2,0.3,0.5,0.7,0.7,1c0.3,0.4,0.6,0.9,0.9,1.3c0.2,0.3,0.5,0.7,0.7,1
		c0.3,0.4,0.7,0.9,1,1.3c0.2,0.3,0.5,0.6,0.7,0.9c0.4,0.4,0.8,0.9,1.1,1.3c0.2,0.3,0.5,0.5,0.7,0.8c0.5,0.5,0.9,1,1.4,1.4
		c0.2,0.2,0.3,0.4,0.5,0.5c0.7,0.6,1.3,1.3,2,1.9c0.1,0.1,0.2,0.2,0.3,0.3c0.6,0.5,1.2,1,1.8,1.5c0.2,0.2,0.5,0.4,0.7,0.6
		c0.5,0.4,0.9,0.8,1.4,1.1c0.3,0.2,0.6,0.4,0.9,0.6c0.5,0.3,0.9,0.7,1.4,1c0.3,0.2,0.6,0.4,1,0.7c0.4,0.3,0.9,0.6,1.3,0.9
		c0.3,0.2,0.7,0.4,1,0.6c0.4,0.3,0.9,0.6,1.4,0.8c0.3,0.2,0.7,0.4,1,0.6c0.5,0.3,0.9,0.5,1.4,0.8c0.4,0.2,0.7,0.4,1.1,0.6
		c0.5,0.3,0.9,0.5,1.4,0.8c0.4,0.2,0.7,0.4,1.1,0.6c0.5,0.2,1,0.5,1.4,0.7c0.4,0.2,0.7,0.4,1.1,0.5c0.5,0.2,1,0.5,1.5,0.7
		c0.4,0.2,0.7,0.3,1.1,0.5c0.5,0.2,1,0.4,1.5,0.7c0.4,0.2,0.7,0.3,1.1,0.5c0.5,0.2,1,0.4,1.6,0.6c0.3,0.1,0.7,0.3,1,0.4
		c0.5,0.2,1.1,0.4,1.6,0.6c0.3,0.1,0.6,0.3,1,0.4c0.6,0.2,1.2,0.4,1.7,0.7c0.3,0.1,0.6,0.2,0.9,0.3c0.7,0.2,1.3,0.5,2,0.7
		c0.2,0.1,0.4,0.2,0.6,0.2c1.8,0.6,3.6,1.2,5.3,1.8l0,0c13,4.1,25.6,7,34.8,10.4C770.7,300.9,763.6,290.6,763.6,278.6z"/>
</g>
<circle class="st0" cx="307.7" cy="161.2" r="35.6"/>
<circle class="st1" cx="376.5" cy="401.6" r="33.1"/>
<g>
	<defs>
		<rect id="SVGID_1_" x="858" y="361.6" width="98.7" height="28.5"/>
	</defs>
	<clipPath id="SVGID_2_">
		<use xlink:href="#SVGID_1_"  style="overflow:visible;"/>
	</clipPath>
	<g class="st3">
		<path class="st1" d="M864.7,390.1c0-12.9,10.2-22.9,22.9-22.9c12.6,0,22.9,9.9,22.9,22.9c0,12.9-10.2,22.9-22.9,22.9
			C874.9,412.9,864.7,403,864.7,390.1z M900.4,390.1c0-7.9-5.7-13.1-12.8-13.1c-7.2,0-12.8,5.2-12.8,13.1c0,7.9,5.7,13.1,12.8,13.1
			C894.7,403.1,900.4,397.9,900.4,390.1z"/>
		<path class="st1" d="M930.9,397.6h-4.8V412h-10.1v-44h17.6c8.4,0,15.1,6.7,15.1,15.1c0,5.4-3.3,10.3-8.1,12.8L950,412h-10.8
			L930.9,397.6z M926.1,388.8h7.5c2.8,0,5-2.4,5-5.7s-2.3-5.7-5-5.7h-7.5V388.8z"/>
	</g>
</g>
<g>
	<defs>
		<rect id="SVGID_3_" x="852.9" y="390.1" width="112.5" height="26.8"/>
	</defs>
	<clipPath id="SVGID_4_">
		<use xlink:href="#SVGID_3_"  style="overflow:visible;"/>
	</clipPath>
	<g class="st4">
		<path class="st0" d="M864.7,388.4c0-12.9,10.2-22.9,22.9-22.9c12.6,0,22.9,9.9,22.9,22.9c0,12.9-10.2,22.9-22.9,22.9
			C874.9,411.3,864.7,401.3,864.7,388.4z M900.4,388.4c0-7.9-5.7-13.1-12.8-13.1c-7.2,0-12.8,5.2-12.8,13.1
			c0,7.9,5.7,13.1,12.8,13.1C894.7,401.5,900.4,396.2,900.4,388.4z"/>
		<path class="st0" d="M930.9,397.6h-4.8V412h-10.1v-44h17.6c8.4,0,15.1,6.7,15.1,15.1c0,5.4-3.3,10.3-8.1,12.8L950,412h-10.8
			L930.9,397.6z M926.1,388.8h7.5c2.8,0,5-2.4,5-5.7s-2.3-5.7-5-5.7h-7.5V388.8z"/>
	</g>
</g>
</svg>
