<?xml version="1.0" encoding="utf-8"?>
<!-- Generator: Adobe Illustrator 21.0.0, SVG Export Plug-In . SVG Version: 6.00 Build 0)  -->
<svg version="1.1" id="Calque_1" xmlns="http://www.w3.org/2000/svg" xmlns:xlink="http://www.w3.org/1999/xlink" x="0px" y="0px"
	 viewBox="0 0 1133.5 788" style="enable-background:new 0 0 1133.5 788;" xml:space="preserve">
<style type="text/css">
	.st0{fill:#4CB6AC;}
	.st1{fill:#010101;}
</style>
<polygon class="st0" points="-477.4,3751.9 -477.4,3121.2 -480.4,3121.2 -480.4,5540.2 -1138.9,5539.1 -1138.9,3126.5 
	-1849.5,3126.5 -1849.5,5539.1 -2556.5,5535.3 -2556.5,6215.8 -348.4,6215.8 -348.4,6214.3 172.6,6214.3 181.1,6210.9 181.1,3751.9 
	"/>
<path class="st0" d="M4061.6,4709.6c0,508.1-441.9,724.7-919.1,724.7c-441.8,0-777.7-167.9-950-525.8l574.4-327
	c57.4,167.9,181.2,260.7,375.6,260.7c159.1,0,238.6-48.6,238.6-137c0-243-1087-114.9-1087-879.3c0-481.6,406.5-724.7,866.1-724.7
	c357.9,0,676.1,159.1,861.7,472.8l-565.6,304.9c-61.8-114.9-150.2-194.4-296.1-194.4c-114.9,0-185.6,44.2-185.6,123.7
	C2974.6,4060.1,4061.6,3892.2,4061.6,4709.6z"/>
<path class="st1" d="M56.1,3243.5c-291.7,0-412.9,130.5-532.2,294V2446h-662.8v1.3h-2213v680.5h795.4v2412.6h707V3127.9h710.6
	v2411.3l661.9,1.1l0.9-1207.4c0-313.7,97.4-455.1,340.4-455.1c212.1,0,316.7,117.1,316.7,391v708.5h667v-800.2
	C848,3580.5,502.4,3243.5,56.1,3243.5z"/>
<path class="st0" d="M848,3121.2v1259.3c0,274-113,402.1-325.1,402.1c-205.9,0-315.6-100.4-341.8-322.2L179,4415l-7,687
	c117.1,159,256.7,314.9,542.6,314.9c446.3,0,791.9-337,791.9-933.6V3124.6L848,3121.2z"/>
<path class="st0" d="M4304.6,5440.4c126.3,0,228.7,99.3,228.7,228.7c0,129.4-102.4,228.7-228.7,228.7
	c-126.3,0-228.7-99.2-228.7-228.7C4076,5539.6,4178.3,5440.4,4304.6,5440.4z M4304.6,5538.4c-71.6,0-128.1,52.1-128.1,130.7
	c0,78.5,56.5,130.7,128.1,130.7s128.1-52.1,128.1-130.7C4432.8,5590.5,4376.2,5538.4,4304.6,5538.4z"/>
<path class="st0" d="M4821,5432.5h108l-93.6,161.4c48.4,24.5,81,73.5,81,127.5c0,83.5-67.2,150.8-150.8,150.8h-175.9v-439.7h100.5
	V5577h47.7L4821,5432.5z M4690.3,5778h75.4c27.6,0,50.3-24.5,50.3-56.5s-22.6-56.5-50.3-56.5h-75.4V5778z"/>
<path class="st1" d="M4076,5212.6c0-129.4,102.4-228.7,228.7-228.7c126.3,0,228.7,99.2,228.7,228.7c0,129.4-102.4,228.7-228.7,228.7
	C4178.3,5441.3,4076,5342,4076,5212.6z M4432.8,5212.6c0-78.5-56.5-130.7-128.1-130.7s-128.1,52.1-128.1,130.7
	c0,78.5,56.5,130.7,128.1,130.7C4376.2,5343.3,4432.8,5291.1,4432.8,5212.6z"/>
<path class="st1" d="M4738,5288h-47.7v144.5h-100.5v-439.7h175.9c83.5,0,150.8,67.2,150.8,150.8c0,54-32.7,103-81,127.5l93.6,161.4
	h-108L4738,5288z M4690.3,5200h75.4c27.6,0,50.3-24.5,50.3-56.5s-22.6-56.5-50.3-56.5h-75.4V5200z"/>
<g>
	<g>
		<path class="st0" d="M1833.3,6323.4c216.5,0,397.7-181.2,397.7-397.7S2049.8,5528,1833.3,5528s-397.7,181.2-397.7,397.7
			C1435.6,6142.3,1616.8,6323.4,1833.3,6323.4z"/>
	</g>
</g>
<g>
	<path class="st1" d="M1833.3,2927c216.5,0,397.7-181.2,397.7-397.7s-181.2-397.7-397.7-397.7s-397.7,181.2-397.7,397.7
		C1435.6,2745.9,1616.8,2927,1833.3,2927z"/>
</g>
<polygon class="st0" points="1502.3,5330.5 2170.2,5330.5 2174.2,3124.6 1506.4,3124.6 "/>
<path class="st1" d="M1506.4,3124.6v866.9c0,181.2,152.6,332.8,333.8,332.8s333-151.6,333-332.8v-866.9L1506.4,3124.6L1506.4,3124.6
	z"/>
<g>
	<path class="st1" d="M3065.2,4310.4c0-165.7,134.3-300.1,300.1-300.1c18.7,0,33.5,1.7,51.2,5c-106.7-30.2-305.6-83.5-334.6-97.4
		c-33-15.8-95.8-44.6-106.5-99.6c-0.4-3.3-0.7-6.7-0.7-10.1c0-5,0.3-9.8,0.8-14.5c2.2-18.8,8.7-35.3,19.1-49.4
		c13-17.7,32.1-31.6,56.5-41.6c29.3-12,66.1-18.2,109.2-18.2c72.9,0,131.5,19.9,179.5,54.1c6,4.3,11.9,8.8,17.5,13.5
		c11.4,9.4,22.1,19.7,32.3,30.8c25.5,27.6,47.4,60.1,66.7,96l565.6-304.9c-185.6-313.7-503.7-472.8-861.7-472.8
		c-136.4,0-268.2,21.4-386,64.1c-6.2,2.2-12.4,4.6-18.5,6.9c-12.2,4.7-24.3,9.7-36.2,14.9c-6,2.6-11.9,5.3-17.7,8
		c-17.6,8.2-34.8,16.9-51.6,26.1c-11.2,6.1-22.2,12.5-33,19.1c-21.6,13.2-42.4,27.4-62.3,42.5c-44.7,34-84.9,72.8-119.6,116.3
		c-11.6,14.5-22.5,29.5-32.8,45.1c-6.9,10.4-13.4,21-19.7,31.8c-18.8,32.5-34.9,67.2-48.1,103.9c-6.6,18.4-12.4,37.3-17.4,56.7
		c-8.4,32.4-14.6,66.2-18.5,101.5c-3.1,28.2-4.7,57.4-4.7,87.5c0,12.3,0.3,24.4,0.9,36.3c0.2,4,0.6,7.8,0.8,11.7
		c0.5,7.8,1,15.6,1.7,23.2c0.4,4.6,1.1,9,1.6,13.5c0.8,6.8,1.5,13.6,2.5,20.2c0.7,4.7,1.5,9.2,2.3,13.8c1.1,6.2,2.1,12.4,3.3,18.5
		c0.9,4.6,2,9.2,3,13.7c1.3,5.8,2.6,11.6,4.1,17.3c1.2,4.5,2.4,9,3.7,13.5c1.6,5.5,3.1,11,4.8,16.4c1.4,4.4,2.9,8.7,4.3,13.1
		c1.8,5.3,3.6,10.5,5.6,15.6c1.6,4.2,3.3,8.4,4.9,12.6c2,5,4.1,10,6.3,14.9c1.8,4.1,3.6,8.1,5.5,12.1c2.3,4.8,4.6,9.6,7,14.3
		c2,3.9,4,7.7,6,11.5c2.5,4.7,5.1,9.2,7.7,13.8c2.1,3.7,4.3,7.4,6.5,11c2.8,4.5,5.6,8.9,8.5,13.3c2.3,3.5,4.5,7,6.9,10.4
		c3,4.4,6.1,8.7,9.3,12.9c2.4,3.2,4.7,6.5,7.1,9.7c3.3,4.3,6.8,8.5,10.2,12.8c2.4,3,4.8,6,7.2,8.9c3.7,4.4,7.6,8.7,11.5,13
		c2.3,2.6,4.5,5.2,6.9,7.7c4.6,4.9,9.3,9.6,14,14.4c1.8,1.8,3.5,3.6,5.2,5.3c6.6,6.4,13.3,12.7,20.2,18.8c1.1,1,2.3,2,3.5,3
		c5.8,5.1,11.6,10.1,17.5,15c2.5,2,5,3.9,7.5,5.9c4.7,3.8,9.4,7.5,14.3,11.2c2.9,2.2,5.9,4.3,8.8,6.5c4.5,3.3,9,6.6,13.6,9.8
		c3.2,2.2,6.4,4.4,9.6,6.5c4.5,3,8.9,6.1,13.5,9c3.3,2.2,6.7,4.3,10.1,6.4c4.5,2.8,9,5.6,13.5,8.4c3.5,2.1,7,4.1,10.5,6.2
		c4.6,2.7,9.1,5.3,13.7,7.9c3.5,2,7.1,4,10.7,5.9c4.6,2.5,9.3,5.1,14,7.5c3.6,1.9,7.2,3.8,10.8,5.6c4.7,2.4,9.5,4.8,14.3,7.2
		c3.6,1.8,7.3,3.6,10.9,5.3c4.8,2.3,9.7,4.6,14.6,6.9c3.6,1.7,7.3,3.4,10.9,5c5,2.2,10,4.4,15,6.6c3.6,1.6,7.2,3.1,10.8,4.7
		c5.2,2.2,10.4,4.3,15.6,6.5c3.5,1.4,6.9,2.9,10.4,4.3c5.4,2.2,10.9,4.3,16.4,6.5c3.2,1.3,6.5,2.5,9.7,3.8
		c5.8,2.2,11.7,4.4,17.5,6.5c2.9,1.1,5.8,2.2,8.8,3.2c6.6,2.4,13.2,4.7,19.8,7c2.2,0.8,4.3,1.5,6.5,2.3
		c17.8,6.2,35.6,12.1,53.4,17.7l0,0c130.2,41.5,256.2,70.2,348.1,103.8C3135.7,4534.1,3065.2,4430.5,3065.2,4310.4z"/>
</g>
<circle class="st0" cx="-1493.9" cy="3136.9" r="355.9"/>
<circle class="st1" cx="-806.7" cy="5540.5" r="331.1"/>
<circle class="st0" cx="-6300" cy="6215.8" r="582"/>
<polygon class="st0" points="396.9,330.8 396.9,248 396.5,248 396.5,565.5 310.1,565.4 310.1,248.7 216.8,248.7 216.8,565.4 
	124,564.9 124,654.2 413.8,654.2 413.8,654 482.2,654 483.3,653.6 483.3,330.8 "/>
<path class="st0" d="M992.7,456.5c0,66.7-58,95.1-120.6,95.1c-58,0-102.1-22-124.7-69l75.4-42.9c7.5,22,23.8,34.2,49.3,34.2
	c20.9,0,31.3-6.4,31.3-18c0-31.9-142.7-15.1-142.7-115.4c0-63.2,53.4-95.1,113.7-95.1c47,0,88.7,20.9,113.1,62.1l-74.2,40
	c-8.1-15.1-19.7-25.5-38.9-25.5c-15.1,0-24.4,5.8-24.4,16.2C850,371.3,992.7,349.2,992.7,456.5z"/>
<path class="st1" d="M466.9,264.1c-38.3,0-54.2,17.1-69.8,38.6V159.4h-87v0.2H19.6v89.3H124v316.7h92.8V248.9h93.3v316.5l86.9,0.1
	l0.1-158.5c0-41.2,12.8-59.7,44.7-59.7c27.8,0,41.6,15.4,41.6,51.3v93h87.5v-105C570.8,308.3,525.5,264.1,466.9,264.1z"/>
<path class="st0" d="M570.8,248v165.3c0,36-14.8,52.8-42.7,52.8c-27,0-41.4-13.2-44.9-42.3l-0.3-6L482,508
	c15.4,20.9,33.7,41.3,71.2,41.3c58.6,0,103.9-44.2,103.9-122.5V248.5L570.8,248z"/>
<path class="st0" d="M1024.5,552.4c16.6,0,30,13,30,30s-13.4,30-30,30s-30-13-30-30C994.5,565.5,1008,552.4,1024.5,552.4z
	 M1024.5,565.3c-9.4,0-16.8,6.8-16.8,17.2c0,10.3,7.4,17.2,16.8,17.2c9.4,0,16.8-6.8,16.8-17.2
	C1041.4,572.1,1033.9,565.3,1024.5,565.3z"/>
<path class="st0" d="M1092.3,551.4h14.2l-12.3,21.2c6.3,3.2,10.6,9.6,10.6,16.7c0,11-8.8,19.8-19.8,19.8h-23v-57.7h13.2v19h6.3
	L1092.3,551.4z M1075.2,596.7h9.9c3.6,0,6.6-3.2,6.6-7.4s-3-7.4-6.6-7.4h-9.9V596.7z"/>
<path class="st1" d="M994.5,522.5c0-17,13.4-30,30-30s30,13,30,30s-13.4,30-30,30C1008,552.5,994.5,539.5,994.5,522.5z
	 M1041.4,522.5c0-10.3-7.4-17.2-16.8-17.2s-16.8,6.8-16.8,17.2c0,10.3,7.4,17.2,16.8,17.2C1033.9,539.7,1041.4,532.8,1041.4,522.5z"
	/>
<path class="st1" d="M1081.4,532.4h-6.3v19H1062v-57.7h23.1c11,0,19.8,8.8,19.8,19.8c0,7.1-4.3,13.5-10.6,16.7l12.3,21.2h-14.2
	L1081.4,532.4z M1075.2,520.9h9.9c3.6,0,6.6-3.2,6.6-7.4s-3-7.4-6.6-7.4h-9.9V520.9z"/>
<g>
	<g>
		<path class="st0" d="M700.2,668.3c28.4,0,52.2-23.8,52.2-52.2s-23.8-52.2-52.2-52.2S648,587.7,648,616.1
			C648,644.6,671.8,668.3,700.2,668.3z"/>
	</g>
</g>
<g>
	<path class="st1" d="M700.2,222.5c28.4,0,52.2-23.8,52.2-52.2s-23.8-52.2-52.2-52.2S648,141.9,648,170.3
		C648,198.8,671.8,222.5,700.2,222.5z"/>
</g>
<polygon class="st0" points="656.7,538 744.4,538 744.9,248.5 657.3,248.5 "/>
<path class="st1" d="M657.3,248.5v113.8c0,23.8,20,43.7,43.8,43.7s43.7-19.9,43.7-43.7V248.5H657.3z"/>
<g>
	<path class="st1" d="M861.9,404.1c0-21.8,17.6-39.4,39.4-39.4c2.5,0,4.4,0.2,6.7,0.7c-14-4-40.1-11-43.9-12.8
		c-4.3-2.1-12.6-5.8-14-13.1c-0.1-0.4-0.1-0.9-0.1-1.3c0-0.7,0-1.3,0.1-1.9c0.3-2.5,1.1-4.6,2.5-6.5c1.7-2.3,4.2-4.2,7.4-5.5
		c3.8-1.6,8.7-2.4,14.3-2.4c9.6,0,17.3,2.6,23.6,7.1c0.8,0.6,1.6,1.2,2.3,1.8c1.5,1.2,2.9,2.6,4.2,4c3.3,3.6,6.2,7.9,8.8,12.6
		l74.2-40c-24.4-41.2-66.1-62.1-113.1-62.1c-17.9,0-35.2,2.8-50.7,8.4c-0.8,0.3-1.6,0.6-2.4,0.9c-1.6,0.6-3.2,1.3-4.8,2
		c-0.8,0.3-1.6,0.7-2.3,1c-2.3,1.1-4.6,2.2-6.8,3.4c-1.5,0.8-2.9,1.6-4.3,2.5c-2.8,1.7-5.6,3.6-8.2,5.6c-5.9,4.5-11.1,9.6-15.7,15.3
		c-1.5,1.9-3,3.9-4.3,5.9c-0.9,1.4-1.8,2.8-2.6,4.2c-2.5,4.3-4.6,8.8-6.3,13.6c-0.9,2.4-1.6,4.9-2.3,7.4c-1.1,4.2-1.9,8.7-2.4,13.3
		c-0.4,3.7-0.6,7.5-0.6,11.5c0,1.6,0,3.2,0.1,4.8c0,0.5,0.1,1,0.1,1.5c0.1,1,0.1,2.1,0.2,3c0.1,0.6,0.1,1.2,0.2,1.8
		c0.1,0.9,0.2,1.8,0.3,2.6c0.1,0.6,0.2,1.2,0.3,1.8c0.1,0.8,0.3,1.6,0.4,2.4c0.1,0.6,0.3,1.2,0.4,1.8c0.2,0.8,0.3,1.5,0.5,2.3
		c0.2,0.6,0.3,1.2,0.5,1.8c0.2,0.7,0.4,1.4,0.6,2.2c0.2,0.6,0.4,1.1,0.6,1.7c0.2,0.7,0.5,1.4,0.7,2s0.4,1.1,0.6,1.7
		c0.3,0.7,0.5,1.3,0.8,2c0.2,0.5,0.5,1.1,0.7,1.6c0.3,0.6,0.6,1.3,0.9,1.9c0.3,0.5,0.5,1,0.8,1.5c0.3,0.6,0.7,1.2,1,1.8
		c0.3,0.5,0.6,1,0.8,1.4c0.4,0.6,0.7,1.2,1.1,1.7c0.3,0.5,0.6,0.9,0.9,1.4c0.4,0.6,0.8,1.1,1.2,1.7c0.3,0.4,0.6,0.9,0.9,1.3
		c0.4,0.6,0.9,1.1,1.3,1.7c0.3,0.4,0.6,0.8,0.9,1.2c0.5,0.6,1,1.1,1.5,1.7c0.3,0.3,0.6,0.7,0.9,1c0.6,0.6,1.2,1.3,1.8,1.9
		c0.2,0.2,0.5,0.5,0.7,0.7c0.9,0.8,1.7,1.7,2.6,2.5c0.1,0.1,0.3,0.3,0.5,0.4c0.8,0.7,1.5,1.3,2.3,2c0.3,0.3,0.7,0.5,1,0.8
		c0.6,0.5,1.2,1,1.9,1.5c0.4,0.3,0.8,0.6,1.2,0.8c0.6,0.4,1.2,0.9,1.8,1.3c0.4,0.3,0.8,0.6,1.3,0.9c0.6,0.4,1.2,0.8,1.8,1.2
		c0.4,0.3,0.9,0.6,1.3,0.8c0.6,0.4,1.2,0.7,1.8,1.1c0.5,0.3,0.9,0.5,1.4,0.8c0.6,0.4,1.2,0.7,1.8,1c0.5,0.3,0.9,0.5,1.4,0.8
		c0.6,0.3,1.2,0.7,1.8,1c0.5,0.2,0.9,0.5,1.4,0.7c0.6,0.3,1.2,0.6,1.9,0.9c0.5,0.2,1,0.5,1.4,0.7c0.6,0.3,1.3,0.6,1.9,0.9
		c0.5,0.2,1,0.4,1.4,0.7c0.7,0.3,1.3,0.6,2,0.9c0.5,0.2,0.9,0.4,1.4,0.6c0.7,0.3,1.4,0.6,2,0.9c0.5,0.2,0.9,0.4,1.4,0.6
		c0.7,0.3,1.4,0.6,2.1,0.8c0.4,0.2,0.9,0.3,1.3,0.5c0.8,0.3,1.5,0.6,2.3,0.9c0.4,0.1,0.8,0.3,1.2,0.4c0.9,0.3,1.7,0.6,2.6,0.9
		c0.3,0.1,0.6,0.2,0.9,0.3c2.3,0.8,4.7,1.6,7,2.3l0,0c17.1,5.4,33.6,9.2,45.7,13.6C871.1,433.5,861.9,419.9,861.9,404.1z"/>
</g>
<circle class="st0" cx="263.5" cy="250.1" r="46.7"/>
<circle class="st1" cx="353.7" cy="565.6" r="43.5"/>
</svg>
